<svg width="81" height="80" viewBox="0 0 81 80" fill="none" xmlns="http://www.w3.org/2000/svg">
<g id="fa6-solid:book-open-reader">
<path id="Vector" d="M27.375 19.5625C27.375 16.2307 28.7578 13.0354 31.2192 10.6795C33.6806 8.32355 37.019 7 40.5 7C43.981 7 47.3194 8.32355 49.7808 10.6795C52.2422 13.0354 53.625 16.2307 53.625 19.5625C53.625 22.8943 52.2422 26.0896 49.7808 28.4455C47.3194 30.8015 43.981 32.125 40.5 32.125C37.019 32.125 33.6806 30.8015 31.2192 28.4455C28.7578 26.0896 27.375 22.8943 27.375 19.5625ZM38.3125 39.4531V74L31.6953 70.8332C28.8379 69.4723 25.748 68.6086 22.5625 68.3076L9.4375 67.0514C7.20898 66.8289 5.5 65.0361 5.5 62.877V36.3125C5.5 33.9963 7.45508 32.125 9.875 32.125H14.0176C22.7129 32.125 31.1895 34.6898 38.3125 39.4531ZM42.6875 74V39.4531C49.8105 34.6898 58.2871 32.125 66.9824 32.125H71.125C73.5449 32.125 75.5 33.9963 75.5 36.3125V62.877C75.5 65.023 73.791 66.8289 71.5625 67.0383L58.4375 68.2945C55.2656 68.5955 52.1621 69.4592 49.3047 70.8201L42.6875 74Z" fill="#769ED7"/>
</g>
</svg>
