<svg width="81" height="80" viewBox="0 0 81 80" fill="none" xmlns="http://www.w3.org/2000/svg">
<g id="ic:round-people" clip-path="url(#clip0_800_298)">
<path id="Vector" d="M55.3787 39.8095C61.4151 39.8095 66.2514 34.641 66.2514 28.2381C66.2514 21.8353 61.4151 16.6667 55.3787 16.6667C49.3423 16.6667 44.4696 21.8353 44.4696 28.2381C44.4696 34.641 49.3423 39.8095 55.3787 39.8095ZM26.2878 39.8095C32.3242 39.8095 37.1605 34.641 37.1605 28.2381C37.1605 21.8353 32.3242 16.6667 26.2878 16.6667C20.2514 16.6667 15.3787 21.8353 15.3787 28.2381C15.3787 34.641 20.2514 39.8095 26.2878 39.8095ZM26.2878 47.5238C17.8151 47.5238 0.833252 52.0367 0.833252 61.0238V66.8095C0.833252 68.931 2.46962 70.6667 4.46962 70.6667H48.106C50.106 70.6667 51.7423 68.931 51.7423 66.8095V61.0238C51.7423 52.0367 34.7605 47.5238 26.2878 47.5238ZM55.3787 47.5238C54.3242 47.5238 53.1242 47.601 51.8514 47.7167C51.9242 47.7553 51.9605 47.8324 51.9969 47.871C56.1423 51.0724 59.0151 55.3538 59.0151 61.0238V66.8095C59.0151 68.1595 58.7605 69.471 58.3605 70.6667H77.1969C79.1969 70.6667 80.8333 68.931 80.8333 66.8095V61.0238C80.8333 52.0367 63.8514 47.5238 55.3787 47.5238Z" fill="#769ED7"/>
</g>
<defs>
<clipPath id="clip0_800_298">
<rect width="80" height="80" fill="white" transform="translate(0.5)"/>
</clipPath>
</defs>
</svg>
