<svg width="81" height="80" viewBox="0 0 81 80" fill="none" xmlns="http://www.w3.org/2000/svg">
<g id="clarity:library-solid" clip-path="url(#clip0_800_303)">
<path id="Vector" d="M28.8334 6.6667H12.1667C11.5057 6.60367 10.8462 6.80038 10.3277 7.21516C9.80921 7.62994 9.47252 8.23023 9.38892 8.88892V73.3334H31.6111V8.88892C31.5275 8.23023 31.1908 7.62994 30.6724 7.21516C30.1539 6.80038 29.4943 6.60367 28.8334 6.6667Z" fill="#769ED7"/>
<path id="Vector_2" d="M75.5446 69.0889L60.1223 28.4222C60.0188 28.1493 59.8625 27.8995 59.6623 27.6871C59.4622 27.4746 59.2222 27.3036 58.956 27.184C58.6898 27.0643 58.4026 26.9982 58.1109 26.9895C57.8191 26.9808 57.5285 27.0297 57.2557 27.1333L49.389 30.2V20C49.389 19.4106 49.1549 18.8454 48.7381 18.4286C48.3214 18.0119 47.7561 17.7778 47.1668 17.7778H36.0557V73.3333H49.389V32.6444L64.789 73.3333L75.5446 69.0889Z" fill="#769ED7"/>
</g>
<defs>
<clipPath id="clip0_800_303">
<rect width="80" height="80" fill="white" transform="translate(0.5)"/>
</clipPath>
</defs>
</svg>
