<svg width="106" height="107" viewBox="0 0 106 107" fill="none" xmlns="http://www.w3.org/2000/svg">
<path d="M14.7475 71.1172L0.50292 57.6276L5.24479 54.8974L19.4265 61.0747L52.837 41.8377L12.8598 4.0912L18.8996 0.506406L72.4914 30.4621L96.1982 16.7693C97.7547 15.8732 99.3757 15.6509 101.061 16.1025C102.743 16.553 104.033 17.5555 104.933 19.1098C105.833 20.6642 106.052 22.3033 105.59 24.0271C105.13 25.7425 104.122 27.0504 102.564 27.9508L78.9931 41.7207L78.1282 102.833L72.0901 106.412L59.1732 52.9772L26.0704 72.0318L24.1828 87.4615L19.2943 90.2816L14.7475 71.1172Z" fill="#769ED7"/>
</svg>
