<svg width="140" height="140" viewBox="0 0 140 140" fill="none" xmlns="http://www.w3.org/2000/svg">
<g id="game-icons:materials-science" opacity="0.1">
<path id="Vector" d="M70.2668 6.12356C65.673 6.12356 61.3828 8.21536 57.7258 11.6407C54.0694 15.0669 50.9391 19.8384 48.3297 25.618C47.7828 26.8288 47.2606 28.0872 46.7613 29.3852C45.4148 29.1714 44.0626 28.9958 42.7062 28.8585C41.1285 28.7013 39.589 28.6037 38.0933 28.5687C33.6035 28.462 29.5 28.9173 25.9035 30.0075C21.1085 31.4614 17.1518 34.1318 14.8549 38.1095C12.5581 42.088 12.2245 46.8496 13.3628 51.7294C14.5017 56.6089 17.0684 61.7055 20.7694 66.8554C21.546 67.9355 22.3756 69.0188 23.2511 70.1019C22.3945 71.1593 21.5681 72.2407 20.7727 73.3449C17.0714 78.4945 14.5047 83.5911 13.3661 88.4709C12.2275 93.3507 12.5614 98.1123 14.8582 102.09C17.1551 106.069 21.1117 108.739 25.9067 110.192C30.702 111.646 36.3994 111.971 42.7095 111.341C44.0324 111.209 45.3837 111.032 46.7585 110.815C47.2465 112.088 47.7705 113.346 48.3297 114.589C50.9391 120.37 54.0692 125.141 57.7258 128.566C61.3825 131.992 65.6733 134.084 70.2668 134.084C74.86 134.084 79.1508 131.992 82.8074 128.566C86.4639 125.14 89.5942 120.37 92.2036 114.589C92.7628 113.347 93.2868 112.088 93.7748 110.816C95.148 111.032 96.4982 111.209 97.82 111.341C104.13 111.971 109.828 111.646 114.623 110.192C119.418 108.738 123.375 106.068 125.672 102.09C127.969 98.1115 128.302 93.3504 127.164 88.4709C126.025 83.5914 123.458 78.4948 119.757 73.3449C118.962 72.2409 118.135 71.1595 117.279 70.1019C118.136 69.0436 118.964 67.9611 119.76 66.8557C123.461 61.7058 126.028 56.6091 127.167 51.7297C128.305 46.8499 127.971 42.0883 125.675 38.1097C123.378 34.132 119.421 31.4617 114.626 30.0078C111.03 28.9176 106.926 28.4623 102.437 28.5687C100.94 28.6037 99.4002 28.7013 97.8227 28.8585C96.4993 28.9909 95.1466 29.1683 93.7712 29.3849C93.2837 28.1148 92.7606 26.8587 92.2025 25.618C89.5931 19.8376 86.463 15.0661 82.8064 11.6404C79.1497 8.21481 74.8589 6.12329 70.2657 6.12329L70.2668 6.12356ZM70.2668 11.2333C73.3306 11.2333 76.3349 12.5794 79.3137 15.3704C82.2923 18.1608 85.1371 22.3849 87.5461 27.7208C87.9379 28.5913 88.3104 29.4705 88.6634 30.3575C82.8072 31.6596 76.6048 33.6574 70.2651 36.3267C63.9269 33.6579 57.7253 31.6607 51.8702 30.3586C52.2317 29.4535 52.603 28.5714 52.9874 27.7205C55.3964 22.3843 58.2413 18.1603 61.2201 15.3693C64.1989 12.5789 67.2029 11.2327 70.2673 11.2327L70.2668 11.2333ZM36.4726 33.6708C36.9659 33.6658 37.4671 33.6691 37.976 33.6806C39.3322 33.7107 40.7424 33.7982 42.1987 33.9439C43.13 34.0369 44.0819 34.1558 45.049 34.2961C43.2481 40.0183 41.8771 46.3881 41.018 53.2125C35.5361 57.3688 30.7045 61.7421 26.6489 66.1633C26.0553 65.4126 25.4785 64.6488 24.9188 63.8725C21.5022 59.1185 19.2669 54.5428 18.3391 50.5676C17.4116 46.5923 17.7485 43.3179 19.2803 40.6645C20.8121 38.011 23.4803 36.0825 27.386 34.8982C29.9495 34.1208 33.0189 33.7019 36.4724 33.6705L36.4726 33.6708ZM104.058 33.6708C107.511 33.7022 110.58 34.1211 113.144 34.8985C117.05 36.0825 119.717 38.011 121.249 40.6645C122.781 43.3179 123.118 46.5926 122.191 50.5676C121.264 54.5425 119.027 59.1185 115.611 63.8725C115.052 64.6489 114.475 65.4129 113.882 66.1639C109.827 61.7432 104.996 57.3709 99.5161 53.2152C98.6575 46.3897 97.2849 40.0192 95.484 34.2961C96.4501 34.1558 97.4008 34.0363 98.3313 33.9439C99.7351 33.8017 101.144 33.7138 102.554 33.6803C103.055 33.6689 103.557 33.6656 104.058 33.6702V33.6708ZM90.4076 35.2129C91.7666 39.4343 92.8918 44.092 93.7315 49.0762C91.0187 47.2437 88.242 45.5077 85.4065 43.8713C82.5732 42.2346 79.683 40.6985 76.7412 39.2658C81.4772 37.5008 86.0728 36.1467 90.4076 35.2135V35.2129ZM50.1256 35.2138C54.4596 36.1473 59.0547 37.5013 63.7893 39.2661C60.8477 40.6988 57.9574 42.2348 55.1241 43.8713C52.2899 45.507 49.5142 47.242 46.8023 49.0732C47.6417 44.0904 48.7667 39.434 50.1256 35.2138ZM70.2651 41.902C74.4233 43.7363 78.6441 45.868 82.8515 48.2972C87.0605 50.7275 91.0191 53.3175 94.6872 56.0027C95.1783 60.5218 95.4425 65.2443 95.4425 70.1038C95.4425 74.9606 95.1791 79.6813 94.6883 84.1984C91.0201 86.883 87.0621 89.4725 82.8545 91.9023C78.6463 94.3318 74.4244 96.4643 70.2654 98.2985C66.1059 96.4643 61.884 94.3318 57.6758 91.9023C53.469 89.4733 49.5126 86.8847 45.8458 84.2012C45.355 79.6832 45.0911 74.9617 45.0911 70.1036C45.0911 65.2432 45.355 60.5201 45.8464 56.0005C49.514 53.3161 53.4712 50.7264 57.6788 48.2972C61.8865 45.8683 66.1073 43.7363 70.2651 41.9026V41.902ZM70.6108 49.59L55.9813 58.6181L70.6108 67.647L85.2402 58.6181L70.6108 49.5897V49.59ZM40.3248 60.2907C40.0949 63.5564 39.9803 66.8292 39.9811 70.103C39.9811 73.4384 40.0987 76.7125 40.3251 79.9096C36.4286 76.6912 32.9579 73.3881 29.9818 70.1006C32.9579 66.8133 36.4283 63.5096 40.3248 60.2907ZM100.209 60.2934C104.104 63.5118 107.574 66.8141 110.549 70.1008C107.574 73.3875 104.104 76.6898 100.209 79.9074C100.439 76.6444 100.553 73.3743 100.552 70.1033C100.552 66.7663 100.435 63.4916 100.209 60.2934H100.209ZM52.6856 62.5887V80.4163L68.05 89.8982V72.0715L52.6856 62.5887ZM88.5217 62.598L73.1608 72.0781V89.8963L88.522 80.4163L88.5217 62.598ZM26.6483 74.0386C30.7045 78.4601 35.5356 82.8324 41.0169 86.9886C41.8755 93.8122 43.2471 100.181 45.0474 105.904C44.0821 106.043 43.1317 106.163 42.202 106.256C36.3767 106.837 31.2954 106.485 27.3893 105.301C23.483 104.117 20.8159 102.188 19.2838 99.5345C17.752 96.8807 17.4149 93.6063 18.3424 89.6314C19.2699 85.6564 21.5055 81.0804 24.9221 76.3264C25.4806 75.5511 26.0559 74.7883 26.6483 74.0386ZM113.881 74.0394C114.485 74.8051 115.063 75.5679 115.608 76.3264C119.024 81.0802 121.26 85.6561 122.187 89.6311C123.115 93.6061 122.778 96.8805 121.246 99.5342C119.714 102.188 117.046 104.117 113.14 105.301C109.234 106.485 104.154 106.837 98.3286 106.255C97.3787 106.159 96.431 106.042 95.4862 105.904C97.2868 100.18 98.6581 93.8098 99.5167 86.9848C104.996 82.8296 109.827 78.4585 113.882 74.0389L113.881 74.0394ZM93.7327 91.1246C92.8932 96.1083 91.7683 100.766 90.4093 104.987C86.0742 104.054 81.478 102.699 76.7418 100.934C79.6843 99.5009 82.5754 97.9643 85.4098 96.3273C88.2445 94.6914 91.0207 92.9561 93.7332 91.1246H93.7327ZM46.8012 91.1273C49.5122 92.958 52.2869 94.6924 55.1203 96.3273C57.9546 97.9642 60.8457 99.5008 63.7882 100.934C59.0534 102.699 54.4585 104.053 50.1237 104.987C48.7648 100.766 47.6406 96.1096 46.8012 91.1273ZM70.418 91.3598L70.6039 91.4746L70.789 91.3598H70.4183H70.418ZM70.2649 103.874C76.6059 106.543 82.8085 108.54 88.6656 109.842C88.312 110.732 87.9388 111.613 87.5461 112.486C85.1371 117.822 82.2923 122.046 79.3135 124.837C76.3349 127.627 73.3306 128.974 70.2668 128.974C67.2026 128.974 64.1984 127.627 61.2198 124.837C58.2413 122.046 55.3964 117.822 52.9874 112.486C52.5949 111.613 52.2216 110.731 51.8677 109.842C57.7237 108.54 63.9258 106.543 70.2654 103.874H70.2649Z" fill="#769ED7"/>
</g>
</svg>
