<svg width="180" height="175" viewBox="0 0 180 175" fill="none" xmlns="http://www.w3.org/2000/svg">
<path id="Vector" d="M111.897 154.905L87.6086 174.956L84.1883 166.865L96.8129 145.48L72.7138 88.4707L4.7278 144.766L0.20047 134.439L58.4432 54.9223L41.275 14.4623C40.1524 11.8065 40.1161 9.17997 41.1664 6.58282C42.214 3.9922 44.0644 2.13242 46.7176 1.00347C49.3708 -0.12547 52.0254 -0.152891 54.6816 0.921206C57.3247 1.99004 59.2108 3.85369 60.34 6.51216L77.6578 46.7707L174.864 60.1355L179.382 70.4584L91.7063 80.5595L115.575 137.043L139.79 143.077L143.325 151.419L111.897 154.905Z" fill="#769ED7"/>
</svg>
