<svg width="686" height="526" viewBox="0 0 686 526" fill="none" xmlns="http://www.w3.org/2000/svg">
<path d="M598.041 427.232L72.5947 412.176C60.7804 411.848 49.4911 407.223 40.8416 399.169C32.1921 391.115 26.7759 380.183 25.6077 368.422L0.244815 117.825C-0.430435 111.117 0.294879 104.342 2.37479 97.9291C4.45469 91.5162 7.84386 85.6051 12.3276 80.5704C16.8113 75.5357 22.2918 71.4872 28.4219 68.6812C34.5521 65.8753 41.1981 64.3731 47.9391 64.2699L632.801 56.1861C639.756 56.0921 646.651 57.4885 653.021 60.2815C659.391 63.0745 665.089 67.1993 669.732 72.3784C674.375 77.5575 677.855 83.6709 679.939 90.3073C682.022 96.9437 682.659 103.949 681.809 110.853L647.756 384.59C646.238 396.6 640.309 407.616 631.12 415.497C621.932 423.378 610.141 427.561 598.041 427.232Z" fill="#EAF9F3"/>
<mask id="mask0_1757_8758" style="mask-type:luminance" maskUnits="userSpaceOnUse" x="3" y="58" width="683" height="373">
<path d="M601.656 430.041L76.2099 414.985C64.3957 414.657 53.1063 410.033 44.4568 401.978C35.8073 393.924 30.3912 382.993 29.2229 371.232L3.86005 120.634C3.1848 113.926 3.91011 107.151 5.99002 100.738C8.06993 94.3255 11.4591 88.4144 15.9428 83.3798C20.4265 78.3451 25.9071 74.2965 32.0372 71.4906C38.1673 68.6846 44.8134 67.1824 51.5544 67.0792L636.416 58.9954C643.371 58.9014 650.266 60.2978 656.636 63.0908C663.006 65.8838 668.705 70.0086 673.348 75.1878C677.991 80.3669 681.471 86.4802 683.554 93.1166C685.637 99.753 686.275 106.759 685.424 113.662L651.371 387.399C649.853 399.409 643.924 410.425 634.736 418.306C625.547 426.187 613.757 430.37 601.656 430.041Z" fill="white"/>
</mask>
<g mask="url(#mask0_1757_8758)">
<path d="M444.323 441.964L446.142 482.888C446.142 486.908 444.545 490.764 441.702 493.606C438.86 496.449 435.005 498.045 430.985 498.045H11.0321C7.01218 498.045 3.15692 496.449 0.314415 493.606C-2.52809 490.764 -4.125 486.908 -4.125 482.888V244.72C-4.125 240.7 -2.52809 236.845 0.314415 234.002C3.15692 231.16 7.01218 229.563 11.0321 229.563H430.884C434.904 229.563 438.759 231.16 441.601 234.002C444.444 236.845 446.041 240.7 446.041 244.72V405.789" stroke="#B8D8C7" stroke-width="0.808594" stroke-linecap="round" stroke-linejoin="round"/>
<path d="M538.396 406.8V172.269C538.396 168.249 539.993 164.394 542.836 161.551C545.678 158.709 549.534 157.112 553.554 157.112H678.852C682.872 157.112 686.727 158.709 689.57 161.551C692.412 164.394 694.009 168.249 694.009 172.269V520.175C694.009 524.195 692.412 528.05 689.57 530.893C686.727 533.735 682.872 535.332 678.852 535.332H553.554C549.534 535.332 545.678 533.735 542.836 530.893C539.993 528.05 538.396 524.195 538.396 520.175V444.491" stroke="#B8D8C7" stroke-width="0.808594" stroke-linecap="round" stroke-linejoin="round"/>
<path d="M89.949 158.527H-0.892578V149.533H89.949C90.1882 149.532 90.4253 149.578 90.6466 149.669C90.8679 149.76 91.0689 149.894 91.2381 150.063C91.4072 150.232 91.5411 150.433 91.6321 150.655C91.723 150.876 91.7692 151.113 91.7678 151.352V156.607C91.7877 156.855 91.7551 157.105 91.6722 157.341C91.5892 157.576 91.4576 157.791 91.2861 157.972C91.1146 158.153 90.9069 158.296 90.6765 158.392C90.4462 158.487 90.1983 158.533 89.949 158.527Z" stroke="#B8D8C7" stroke-width="0.808594" stroke-linecap="round" stroke-linejoin="round"/>
<path d="M76.1077 229.563H55.5951C54.5263 229.566 53.4937 229.176 52.6929 228.469C51.8921 227.761 51.3787 226.784 51.25 225.723L49.6333 211.172C49.5666 210.562 49.6292 209.944 49.8171 209.359C50.005 208.774 50.314 208.235 50.7239 207.778C51.1337 207.32 51.6353 206.954 52.1961 206.703C52.7568 206.453 53.364 206.323 53.9783 206.322H77.7244C78.3382 206.324 78.9447 206.455 79.5047 206.707C80.0646 206.958 80.5656 207.324 80.9751 207.781C81.3847 208.238 81.6937 208.776 81.8822 209.361C82.0707 209.945 82.1345 210.562 82.0695 211.172L80.4527 225.723C80.3392 226.79 79.8303 227.776 79.0261 228.487C78.2219 229.198 77.1807 229.582 76.1077 229.563Z" stroke="#B8D8C7" stroke-width="0.808594" stroke-linecap="round" stroke-linejoin="round"/>
<path d="M63.4759 206.422C63.4759 206.422 55.3921 205.614 53.7754 194.701C53.7754 194.701 61.0508 196.823 63.3749 201.976C63.3749 201.976 64.3854 190.457 69.8419 189.345C69.8419 189.345 72.267 197.934 68.4273 202.178C68.4273 202.178 71.3576 197.328 78.8351 197.429C78.1286 199.557 76.9121 201.48 75.2917 203.03C73.6713 204.58 71.6962 205.71 69.5388 206.321" fill="#B8D8C7"/>
<path d="M627.926 157.112H607.413C606.345 157.115 605.312 156.725 604.511 156.018C603.71 155.31 603.197 154.333 603.068 153.272L601.452 138.721C601.385 138.111 601.448 137.493 601.636 136.908C601.823 136.323 602.132 135.785 602.542 135.327C602.952 134.869 603.454 134.503 604.014 134.253C604.575 134.002 605.182 133.872 605.797 133.871H629.543C630.157 133.873 630.763 134.004 631.323 134.256C631.883 134.507 632.384 134.873 632.794 135.33C633.203 135.788 633.512 136.326 633.701 136.91C633.889 137.494 633.953 138.111 633.888 138.721L632.271 153.272C632.142 154.333 631.629 155.31 630.828 156.018C630.027 156.725 628.995 157.115 627.926 157.112Z" stroke="#B8D8C7" stroke-width="0.808594" stroke-linecap="round" stroke-linejoin="round"/>
<path d="M615.195 133.972C615.195 133.972 607.111 133.164 605.494 122.251C605.494 122.251 612.77 124.373 615.094 129.526C615.094 129.526 616.104 118.007 621.561 116.895C621.561 116.895 623.986 125.484 620.146 129.728C620.146 129.728 623.076 124.878 630.554 124.979C629.847 127.107 628.631 129.03 627.01 130.58C625.39 132.13 623.415 133.26 621.258 133.871" fill="#B8D8C7"/>
<path d="M427.75 279.783H336.605C335.482 279.775 334.407 279.326 333.613 278.532C332.819 277.737 332.369 276.662 332.361 275.539V247.852C332.369 246.729 332.819 245.654 333.613 244.86C334.407 244.066 335.482 243.616 336.605 243.608H427.75C428.873 243.616 429.948 244.066 430.742 244.86C431.536 245.654 431.986 246.729 431.994 247.852V275.539C431.986 276.662 431.536 277.737 430.742 278.532C429.948 279.326 428.873 279.775 427.75 279.783Z" stroke="#B8D8C7" stroke-width="0.808594" stroke-linecap="round" stroke-linejoin="round"/>
<path d="M392.588 253.41H371.57C371.172 253.399 370.792 253.236 370.51 252.954C370.228 252.672 370.065 252.293 370.055 251.894C370.065 251.495 370.228 251.116 370.51 250.833C370.792 250.551 371.172 250.388 371.57 250.378H392.588C392.987 250.388 393.367 250.551 393.649 250.833C393.931 251.116 394.094 251.495 394.104 251.894C394.108 252.094 394.072 252.293 393.997 252.479C393.922 252.665 393.811 252.833 393.669 252.975C393.528 253.116 393.359 253.228 393.173 253.303C392.987 253.377 392.788 253.414 392.588 253.41Z" fill="#B8D8C7"/>
<path d="M427.75 326.164H336.605C335.482 326.156 334.407 325.707 333.613 324.912C332.819 324.118 332.369 323.043 332.361 321.92V294.233C332.369 293.11 332.819 292.035 333.613 291.241C334.407 290.447 335.482 289.997 336.605 289.989H427.75C428.873 289.997 429.948 290.447 430.742 291.241C431.536 292.035 431.986 293.11 431.994 294.233V321.92C431.986 323.043 431.536 324.118 430.742 324.912C429.948 325.707 428.873 326.156 427.75 326.164Z" stroke="#B8D8C7" stroke-width="0.808594" stroke-linecap="round" stroke-linejoin="round"/>
<path d="M392.588 299.69H371.57C371.172 299.679 370.792 299.516 370.51 299.234C370.228 298.952 370.065 298.573 370.055 298.174C370.065 297.775 370.228 297.396 370.51 297.113C370.792 296.831 371.172 296.668 371.57 296.658H392.588C392.987 296.668 393.367 296.831 393.649 297.113C393.931 297.396 394.094 297.775 394.104 298.174C394.108 298.374 394.072 298.573 393.997 298.759C393.922 298.945 393.811 299.113 393.669 299.255C393.528 299.396 393.359 299.508 393.173 299.583C392.987 299.657 392.788 299.694 392.588 299.69Z" fill="#B8D8C7"/>
<path d="M311.547 279.783H220.402C219.279 279.775 218.204 279.326 217.41 278.532C216.616 277.737 216.166 276.662 216.158 275.539V247.852C216.166 246.729 216.616 245.654 217.41 244.86C218.204 244.066 219.279 243.616 220.402 243.608H311.547C312.67 243.616 313.745 244.066 314.539 244.86C315.333 245.654 315.783 246.729 315.791 247.852V275.539C315.783 276.662 315.333 277.737 314.539 278.532C313.745 279.326 312.67 279.775 311.547 279.783Z" stroke="#B8D8C7" stroke-width="0.808594" stroke-linecap="round" stroke-linejoin="round"/>
<path d="M276.483 253.41H255.465C255.066 253.399 254.687 253.236 254.404 252.954C254.122 252.672 253.959 252.293 253.949 251.894C253.959 251.495 254.122 251.116 254.404 250.833C254.687 250.551 255.066 250.388 255.465 250.378H276.483C276.882 250.388 277.261 250.551 277.543 250.833C277.825 251.116 277.988 251.495 277.998 251.894C277.988 252.293 277.825 252.672 277.543 252.954C277.261 253.236 276.882 253.399 276.483 253.41Z" fill="#B8D8C7"/>
<path d="M311.547 326.164H220.402C219.279 326.156 218.204 325.707 217.41 324.912C216.616 324.118 216.166 323.043 216.158 321.92V294.233C216.166 293.11 216.616 292.035 217.41 291.241C218.204 290.447 219.279 289.997 220.402 289.989H311.547C312.67 289.997 313.745 290.447 314.539 291.241C315.333 292.035 315.783 293.11 315.791 294.233V321.92C315.783 323.043 315.333 324.118 314.539 324.912C313.745 325.707 312.67 326.156 311.547 326.164Z" stroke="#B8D8C7" stroke-width="0.808594" stroke-linecap="round" stroke-linejoin="round"/>
<path d="M276.483 299.69H255.465C255.066 299.679 254.687 299.516 254.404 299.234C254.122 298.952 253.959 298.573 253.949 298.174C253.959 297.775 254.122 297.396 254.404 297.113C254.687 296.831 255.066 296.668 255.465 296.658H276.483C276.882 296.668 277.261 296.831 277.543 297.113C277.825 297.396 277.988 297.775 277.998 298.174C277.988 298.573 277.825 298.952 277.543 299.234C277.261 299.516 276.882 299.679 276.483 299.69Z" fill="#B8D8C7"/>
<path d="M427.75 371.432H336.605C335.482 371.425 334.407 370.975 333.613 370.181C332.819 369.387 332.369 368.312 332.361 367.189V339.502C332.369 338.378 332.819 337.304 333.613 336.509C334.407 335.715 335.482 335.266 336.605 335.258H427.75C428.873 335.266 429.948 335.715 430.742 336.509C431.536 337.304 431.986 338.378 431.994 339.502V367.189C431.986 368.312 431.536 369.387 430.742 370.181C429.948 370.975 428.873 371.425 427.75 371.432Z" stroke="#B8D8C7" stroke-width="0.808594" stroke-linecap="round" stroke-linejoin="round"/>
<path d="M392.588 345.06H371.57C371.172 345.05 370.792 344.887 370.51 344.605C370.228 344.323 370.065 343.943 370.055 343.544C370.065 343.146 370.228 342.766 370.51 342.484C370.792 342.202 371.172 342.039 371.57 342.029H392.588C392.987 342.039 393.367 342.202 393.649 342.484C393.931 342.766 394.094 343.146 394.104 343.544C394.108 343.744 394.072 343.943 393.997 344.129C393.922 344.315 393.811 344.484 393.669 344.625C393.528 344.767 393.359 344.878 393.173 344.953C392.987 345.028 392.788 345.064 392.588 345.06Z" fill="#B8D8C7"/>
<path d="M311.547 371.432H220.402C219.279 371.425 218.204 370.975 217.41 370.181C216.616 369.387 216.166 368.312 216.158 367.189V339.502C216.166 338.378 216.616 337.304 217.41 336.509C218.204 335.715 219.279 335.266 220.402 335.258H311.547C312.67 335.266 313.745 335.715 314.539 336.509C315.333 337.304 315.783 338.378 315.791 339.502V367.189C315.783 368.312 315.333 369.387 314.539 370.181C313.745 370.975 312.67 371.425 311.547 371.432Z" stroke="#B8D8C7" stroke-width="0.808594" stroke-linecap="round" stroke-linejoin="round"/>
<path d="M276.483 345.06H255.465C255.066 345.05 254.687 344.887 254.404 344.605C254.122 344.323 253.959 343.943 253.949 343.544C253.959 343.146 254.122 342.766 254.404 342.484C254.687 342.202 255.066 342.039 255.465 342.029H276.483C276.882 342.039 277.261 342.202 277.543 342.484C277.825 342.766 277.988 343.146 277.998 343.544C277.988 343.943 277.825 344.323 277.543 344.605C277.261 344.887 276.882 345.05 276.483 345.06Z" fill="#B8D8C7"/>
<path d="M721.496 263.009H559.922C558.693 262.996 557.518 262.502 556.649 261.633C555.78 260.764 555.287 259.59 555.273 258.361V177.826C555.287 176.597 555.78 175.423 556.649 174.554C557.518 173.685 558.693 173.191 559.922 173.178H721.496C722.725 173.191 723.9 173.685 724.768 174.554C725.637 175.423 726.131 176.597 726.144 177.826V258.361C726.154 258.974 726.04 259.583 725.81 260.151C725.58 260.719 725.238 261.235 724.804 261.669C724.371 262.102 723.855 262.444 723.286 262.675C722.718 262.905 722.109 263.019 721.496 263.009Z" stroke="#B8D8C7" stroke-width="0.808594" stroke-linecap="round" stroke-linejoin="round"/>
<path d="M721.496 363.046H559.922C558.693 363.033 557.518 362.539 556.649 361.67C555.78 360.801 555.287 359.626 555.273 358.397V277.863C555.287 276.634 555.78 275.459 556.649 274.591C557.518 273.722 558.693 273.228 559.922 273.215H721.496C722.725 273.228 723.9 273.722 724.768 274.591C725.637 275.459 726.131 276.634 726.144 277.863V358.397C726.146 359.008 726.026 359.613 725.793 360.178C725.56 360.742 725.218 361.255 724.786 361.687C724.354 362.119 723.841 362.461 723.277 362.695C722.712 362.928 722.107 363.047 721.496 363.046Z" stroke="#B8D8C7" stroke-width="0.808594" stroke-linecap="round" stroke-linejoin="round"/>
<path d="M596.297 212.182H586.293V263.009H596.297V212.182Z" stroke="#B8D8C7" stroke-width="0.808594" stroke-linecap="round" stroke-linejoin="round"/>
<path d="M606.605 226.127H596.197V263.11H606.605V226.127Z" stroke="#B8D8C7" stroke-width="0.808594" stroke-linecap="round" stroke-linejoin="round"/>
<path d="M53.3709 98.7065H43.3672V149.533H53.3709V98.7065Z" stroke="#B8D8C7" stroke-width="0.808594" stroke-linecap="round" stroke-linejoin="round"/>
<path d="M63.6774 112.55H53.2695V149.533H63.6774V112.55Z" stroke="#B8D8C7" stroke-width="0.808594" stroke-linecap="round" stroke-linejoin="round"/>
<path d="M32.9607 119.825H22.957V149.533H32.9607V119.825Z" stroke="#B8D8C7" stroke-width="0.808594" stroke-linecap="round" stroke-linejoin="round"/>
<path d="M43.3649 90.0166H32.957V149.432H43.3649V90.0166Z" stroke="#B8D8C7" stroke-width="0.808594" stroke-linecap="round" stroke-linejoin="round"/>
<path d="M590.034 318.889L591.145 303.833C591.167 303.597 591.138 303.359 591.061 303.136C590.984 302.912 590.86 302.707 590.697 302.535C590.535 302.363 590.337 302.228 590.119 302.138C589.9 302.048 589.664 302.006 589.428 302.014H580.839C580.605 302.015 580.373 302.063 580.159 302.156C579.944 302.249 579.751 302.385 579.59 302.555C579.429 302.725 579.305 302.926 579.224 303.146C579.144 303.365 579.108 303.599 579.121 303.833L580.232 318.889C580.232 318.889 571.138 324.749 571.239 329.6C571.34 333.338 573.563 351.224 574.574 359.105C574.702 360.166 575.216 361.143 576.017 361.851C576.817 362.559 577.85 362.948 578.919 362.945H591.449C592.517 362.948 593.55 362.559 594.351 361.851C595.152 361.143 595.665 360.166 595.794 359.105C596.804 351.224 599.027 333.338 599.128 329.6C599.128 324.749 590.034 318.889 590.034 318.889Z" fill="#B8D8C7"/>
<path d="M638.738 218.953L639.85 203.897C639.872 203.661 639.843 203.424 639.766 203.2C639.688 202.976 639.564 202.771 639.402 202.599C639.239 202.427 639.042 202.292 638.823 202.202C638.604 202.112 638.369 202.07 638.132 202.078H629.442C629.208 202.079 628.977 202.127 628.762 202.221C628.548 202.314 628.354 202.449 628.194 202.619C628.033 202.789 627.909 202.99 627.828 203.21C627.747 203.429 627.712 203.663 627.724 203.897L628.836 218.953C628.836 218.953 619.742 224.814 619.843 229.664C619.944 233.403 622.167 251.288 623.177 259.17C623.306 260.231 623.819 261.207 624.62 261.915C625.421 262.623 626.454 263.012 627.522 263.009H640.052C641.121 263.012 642.153 262.623 642.954 261.915C643.755 261.207 644.268 260.231 644.397 259.17C645.408 251.288 647.631 233.403 647.732 229.664C647.833 224.814 638.738 218.953 638.738 218.953Z" fill="#B8D8C7"/>
<path d="M9.61719 401.04L719.98 408.821" stroke="#B8D8C7" stroke-width="0.808594" stroke-linecap="round" stroke-linejoin="round"/>
</g>
<path d="M379.98 38.6025C376.039 46.9895 366.945 52.5471 360.579 50.8293C355.021 49.3136 354.011 42.7455 357.547 36.1774C360.983 29.9125 367.854 24.8601 373.816 24.7591C380.384 24.557 383.618 30.6198 379.98 38.6025Z" fill="#F8AB5D"/>
<path d="M378.06 36.8857C374.119 45.2727 365.025 50.8303 358.659 49.1125C353.101 47.5968 352.091 41.0287 355.628 34.4606C359.063 28.1957 365.934 23.1433 371.896 23.0423C378.464 22.8402 381.698 28.903 378.06 36.8857Z" fill="#FFE779"/>
<path d="M374.826 36.4815C371.895 42.7465 365.024 46.9904 360.174 45.8789C355.829 44.8684 354.818 39.8161 357.547 34.6627C360.174 29.7114 365.731 25.7705 370.279 25.7705C375.432 25.8716 377.655 30.5197 374.826 36.4815Z" fill="#F8AB5D"/>
<path d="M361.693 41.8369L362.097 41.1295C362.198 40.8264 362.198 40.6243 361.996 40.5233C361.549 40.4375 361.152 40.1845 360.885 39.8159C360.784 39.7149 360.784 39.4117 360.986 39.1086L361.087 39.0075C361.289 38.7044 361.693 38.6033 361.794 38.8054C362.144 39.1774 362.605 39.4256 363.108 39.5128C363.626 39.5868 364.154 39.4883 364.61 39.2327C365.067 38.977 365.426 38.5784 365.634 38.0981C365.749 37.9147 365.825 37.7094 365.857 37.4952C365.888 37.281 365.875 37.0626 365.818 36.8537C365.761 36.6448 365.662 36.4499 365.526 36.2815C365.389 36.1131 365.22 35.9747 365.028 35.8751C364.76 35.7453 364.523 35.5592 364.333 35.3296C364.144 35.1 364.006 34.8322 363.929 34.5445C363.852 34.2568 363.839 33.956 363.889 33.6624C363.939 33.3689 364.052 33.0896 364.219 32.8437C364.503 32.2429 364.926 31.7187 365.453 31.3144C365.981 30.9102 366.597 30.6377 367.251 30.5196C367.453 30.5196 367.655 30.3175 367.857 30.0143L368.261 29.307C368.313 29.1604 368.409 29.0333 368.535 28.9429C368.662 28.8525 368.813 28.8032 368.969 28.8018C369.171 28.8018 369.272 29.0039 369.171 29.307L368.867 29.9133C368.766 30.2164 368.766 30.4185 369.07 30.4185C369.403 30.47 369.717 30.6096 369.979 30.8227C370.181 30.9238 370.08 31.2269 369.878 31.53L369.777 31.6311C369.575 31.9342 369.171 32.0353 369.07 31.8332C368.723 31.5639 368.295 31.4213 367.857 31.429C367.397 31.3995 366.94 31.509 366.543 31.7433C366.147 31.9776 365.83 32.3258 365.634 32.7426C365.23 33.551 365.533 34.0562 366.442 34.7635C366.722 34.9233 366.964 35.1403 367.154 35.4003C367.344 35.6603 367.476 35.9575 367.543 36.2724C367.61 36.5872 367.609 36.9126 367.542 37.2273C367.474 37.5419 367.34 37.8387 367.15 38.0981C366.831 38.7706 366.35 39.3535 365.75 39.7944C365.151 40.2353 364.451 40.5204 363.714 40.6243C363.576 40.6436 363.446 40.7011 363.339 40.7904C363.232 40.8797 363.152 40.9972 363.108 41.1295L362.704 41.9379C362.64 42.0762 362.541 42.1955 362.417 42.2841C362.293 42.3726 362.148 42.4275 361.996 42.4431C361.592 42.4431 361.491 42.14 361.693 41.8369Z" fill="#FFE779"/>
<path d="M564.192 219.175L524.986 216.75C524.341 216.708 523.711 216.538 523.132 216.25C522.553 215.963 522.037 215.563 521.614 215.074C521.191 214.585 520.869 214.017 520.667 213.403C520.466 212.789 520.388 212.14 520.439 211.496L526.401 131.062C526.514 129.716 527.107 128.456 528.071 127.51C529.036 126.564 530.307 125.996 531.655 125.909L571.771 123.484C572.466 123.448 573.161 123.56 573.809 123.812C574.458 124.065 575.045 124.452 575.532 124.949C576.019 125.446 576.396 126.041 576.636 126.694C576.876 127.347 576.974 128.044 576.924 128.738L570.255 214.022C570.099 215.495 569.383 216.852 568.254 217.811C567.126 218.77 565.671 219.259 564.192 219.175Z" fill="#22272E"/>
<path d="M561.46 219.175L522.254 216.75C521.609 216.708 520.978 216.538 520.399 216.25C519.82 215.963 519.305 215.563 518.881 215.074C518.458 214.585 518.137 214.017 517.935 213.403C517.733 212.789 517.656 212.14 517.707 211.496L523.668 131.062C523.782 129.716 524.375 128.456 525.339 127.51C526.303 126.564 527.575 125.996 528.923 125.909L569.039 123.484C569.734 123.448 570.428 123.56 571.077 123.812C571.725 124.065 572.312 124.452 572.8 124.949C573.287 125.446 573.663 126.041 573.903 126.694C574.143 127.347 574.242 128.044 574.192 128.738L567.523 214.022C567.367 215.495 566.651 216.852 565.522 217.811C564.393 218.77 562.939 219.259 561.46 219.175Z" fill="#22272E"/>
<path d="M549.439 132.88L541.962 133.284C541.827 133.293 541.691 133.273 541.565 133.226C541.438 133.178 541.323 133.104 541.227 133.008C541.132 132.913 541.058 132.798 541.01 132.671C540.962 132.544 540.942 132.409 540.951 132.274C540.954 131.98 541.072 131.699 541.28 131.491C541.488 131.283 541.769 131.165 542.063 131.162L549.54 130.758C549.675 130.749 549.811 130.769 549.937 130.817C550.064 130.865 550.179 130.939 550.275 131.034C550.37 131.13 550.444 131.245 550.492 131.372C550.54 131.498 550.56 131.634 550.551 131.769C550.548 132.063 550.43 132.344 550.222 132.552C550.014 132.76 549.733 132.878 549.439 132.88Z" fill="#63737A"/>
<path d="M553.785 132.678H553.583C553.448 132.687 553.313 132.667 553.186 132.619C553.059 132.571 552.944 132.497 552.848 132.402C552.753 132.306 552.679 132.191 552.631 132.064C552.583 131.938 552.563 131.802 552.572 131.667C552.611 131.359 552.751 131.072 552.97 130.853C553.19 130.633 553.477 130.493 553.785 130.455H553.987C554.122 130.446 554.257 130.466 554.384 130.513C554.511 130.561 554.626 130.635 554.721 130.731C554.817 130.827 554.891 130.942 554.939 131.068C554.986 131.195 555.006 131.33 554.998 131.465C554.959 131.773 554.819 132.06 554.6 132.28C554.38 132.5 554.093 132.64 553.785 132.678Z" fill="#63737A"/>
<path d="M542.061 146.319L532.057 146.623C531.813 146.626 531.571 146.577 531.348 146.479C531.124 146.381 530.924 146.236 530.761 146.054C530.598 145.872 530.477 145.657 530.404 145.424C530.331 145.191 530.309 144.945 530.339 144.703C530.392 144.185 530.622 143.701 530.991 143.333C531.359 142.965 531.842 142.735 532.36 142.682L542.364 142.278C542.608 142.274 542.85 142.323 543.074 142.421C543.297 142.519 543.497 142.664 543.66 142.846C543.823 143.028 543.945 143.243 544.018 143.476C544.09 143.709 544.112 143.955 544.082 144.197C544.068 144.739 543.854 145.256 543.48 145.648C543.107 146.04 542.601 146.279 542.061 146.319Z" fill="#63737A"/>
<path d="M539.432 181.08L529.529 180.978C529.29 180.966 529.056 180.906 528.841 180.802C528.625 180.699 528.432 180.553 528.272 180.375C528.112 180.197 527.99 179.989 527.911 179.763C527.832 179.537 527.798 179.298 527.812 179.059C527.868 178.552 528.102 178.081 528.471 177.73C528.841 177.378 529.323 177.169 529.832 177.139L539.735 177.24C539.977 177.244 540.215 177.299 540.435 177.399C540.655 177.5 540.851 177.645 541.013 177.825C541.174 178.005 541.296 178.217 541.372 178.447C541.448 178.676 541.475 178.919 541.453 179.16C541.415 179.674 541.187 180.155 540.814 180.51C540.44 180.865 539.947 181.068 539.432 181.08Z" fill="#63737A"/>
<path d="M537.31 209.171L527.408 208.666C527.161 208.65 526.92 208.584 526.699 208.473C526.478 208.361 526.282 208.207 526.122 208.019C525.962 207.83 525.841 207.612 525.767 207.376C525.693 207.14 525.667 206.891 525.69 206.645C525.711 206.152 525.923 205.686 526.281 205.347C526.64 205.007 527.116 204.821 527.61 204.826L537.513 205.23C537.762 205.238 538.008 205.298 538.233 205.407C538.458 205.515 538.658 205.669 538.82 205.86C538.982 206.05 539.102 206.272 539.173 206.512C539.243 206.752 539.263 207.004 539.23 207.251C539.23 207.761 539.028 208.249 538.668 208.609C538.308 208.969 537.82 209.171 537.31 209.171Z" fill="#63737A"/>
<path d="M560.354 168.651L530.848 168.752C530.552 168.754 530.258 168.693 529.987 168.574C529.715 168.455 529.472 168.28 529.272 168.061C529.072 167.842 528.92 167.584 528.826 167.303C528.732 167.021 528.698 166.723 528.726 166.428L529.636 153.595C529.673 153.081 529.901 152.6 530.275 152.245C530.649 151.889 531.141 151.687 531.657 151.675L561.264 150.867C561.56 150.866 561.854 150.926 562.125 151.045C562.397 151.165 562.64 151.339 562.84 151.558C563.04 151.777 563.192 152.036 563.286 152.317C563.38 152.598 563.414 152.896 563.386 153.191L562.375 166.63C562.375 167.166 562.162 167.68 561.783 168.059C561.404 168.438 560.89 168.651 560.354 168.651Z" fill="#B0D7C0"/>
<path d="M538.725 198.36L528.621 197.956C528.332 197.946 528.048 197.877 527.787 197.753C527.526 197.629 527.293 197.452 527.104 197.234C526.914 197.016 526.771 196.761 526.685 196.485C526.598 196.21 526.569 195.919 526.6 195.631L527.206 187.952C527.219 187.686 527.284 187.426 527.398 187.186C527.512 186.945 527.672 186.73 527.869 186.552C528.066 186.373 528.296 186.236 528.547 186.146C528.797 186.057 529.063 186.018 529.328 186.032L539.534 186.234C540.122 186.265 540.674 186.527 541.071 186.962C541.468 187.396 541.678 187.97 541.656 188.558L541.05 196.44C540.957 196.986 540.672 197.48 540.245 197.833C539.818 198.185 539.279 198.372 538.725 198.36Z" fill="#FFE779"/>
<path d="M557.927 198.965L547.115 198.561C546.826 198.551 546.542 198.482 546.281 198.358C546.02 198.234 545.787 198.057 545.598 197.839C545.408 197.621 545.265 197.366 545.179 197.09C545.092 196.815 545.063 196.524 545.094 196.237L545.7 188.254C545.713 187.988 545.778 187.728 545.892 187.488C546.006 187.247 546.166 187.032 546.363 186.854C546.56 186.675 546.79 186.538 547.041 186.448C547.291 186.359 547.557 186.32 547.822 186.334L558.735 186.536C559.323 186.567 559.875 186.829 560.272 187.264C560.669 187.698 560.879 188.272 560.857 188.86L560.251 197.045C560.163 197.593 559.878 198.09 559.451 198.443C559.023 198.796 558.481 198.982 557.927 198.965Z" fill="#F4C2C9"/>
<path d="M316.021 94.7863L283.181 96.302C282.576 96.3265 281.974 96.2151 281.419 95.976C280.863 95.7369 280.368 95.3762 279.971 94.9204C279.573 94.4646 279.283 93.9255 279.121 93.3426C278.96 92.7598 278.931 92.1481 279.038 91.5527L284.494 36.9872C284.642 35.6032 285.233 34.3041 286.18 33.2841C287.127 32.2642 288.379 31.5781 289.749 31.3285L323.195 26.9835C326.126 26.5793 328.147 28.7013 327.843 31.6317L321.68 89.3297C321.504 90.7499 320.847 92.0668 319.817 93.0601C318.786 94.0533 317.447 94.6627 316.021 94.7863Z" fill="#22272E"/>
<path d="M313.595 93.6742L280.755 95.1899C280.15 95.2144 279.548 95.1031 278.993 94.8639C278.437 94.6248 277.942 94.2641 277.545 93.8083C277.147 93.3526 276.857 92.8134 276.696 92.2306C276.534 91.6477 276.505 91.0361 276.612 90.4407L282.068 35.8751C282.216 34.4911 282.808 33.192 283.755 32.1721C284.702 31.1521 285.953 30.466 287.323 30.2165L320.769 25.8714C323.7 25.4673 325.721 27.5892 325.418 30.5196L319.254 88.2176C319.097 89.6451 318.445 90.9726 317.411 91.9694C316.378 92.9662 315.027 93.5694 313.595 93.6742Z" fill="#22272E"/>
<path d="M315.108 44.2615L289.543 46.9897C289.352 47.0105 289.159 46.9882 288.978 46.9245C288.797 46.8607 288.633 46.7572 288.497 46.6214C288.361 46.4857 288.258 46.3212 288.194 46.1401C288.13 45.959 288.108 45.7659 288.129 45.5751L288.735 39.3101C288.754 39.0216 288.877 38.7498 289.082 38.5453C289.286 38.3408 289.558 38.2176 289.846 38.1986L315.512 35.1672C315.703 35.1464 315.896 35.1687 316.077 35.2325C316.259 35.2962 316.423 35.3998 316.559 35.5355C316.695 35.6713 316.798 35.8358 316.862 36.0168C316.926 36.1979 316.948 36.391 316.927 36.5819L316.22 43.1499C316.217 43.4439 316.099 43.7251 315.891 43.933C315.683 44.1409 315.402 44.2588 315.108 44.2615Z" fill="#F4C2C9"/>
<path d="M291.362 61.6421L288.028 61.9453C287.837 61.9661 287.644 61.9437 287.463 61.88C287.282 61.8162 287.117 61.7127 286.981 61.5769C286.846 61.4412 286.742 61.2767 286.678 61.0956C286.615 60.9145 286.592 60.7215 286.613 60.5306L287.017 56.8929C287.036 56.6044 287.159 56.3325 287.364 56.1281C287.568 55.9236 287.84 55.8004 288.129 55.7814L291.463 55.4782C291.654 55.4575 291.847 55.4798 292.028 55.5435C292.209 55.6073 292.374 55.7108 292.51 55.8466C292.645 55.9823 292.749 56.1468 292.813 56.3279C292.876 56.509 292.899 56.7021 292.878 56.8929L292.474 60.5306C292.455 60.8192 292.332 61.091 292.127 61.2955C291.923 61.5 291.651 61.6232 291.362 61.6421Z" fill="#B0D7C0"/>
<path d="M313.492 59.7229L309.854 60.026C309.663 60.0468 309.47 60.0245 309.289 59.9607C309.108 59.897 308.943 59.7934 308.808 59.6577C308.672 59.5219 308.568 59.3574 308.504 59.1764C308.441 58.9953 308.418 58.8022 308.439 58.6113L308.843 54.7715C308.862 54.483 308.986 54.2112 309.19 54.0067C309.394 53.8022 309.666 53.679 309.955 53.66L313.593 53.2558C313.783 53.235 313.977 53.2574 314.158 53.3211C314.339 53.3849 314.503 53.4884 314.639 53.6242C314.775 53.7599 314.878 53.9244 314.942 54.1055C315.006 54.2866 315.028 54.4796 315.007 54.6705L314.603 58.5103C314.587 58.81 314.468 59.0948 314.265 59.316C314.062 59.5372 313.789 59.6811 313.492 59.7229Z" fill="#B0D7C0"/>
<path d="M302.276 60.6314L298.84 60.9345C298.649 60.9553 298.456 60.933 298.275 60.8692C298.094 60.8055 297.93 60.7019 297.794 60.5662C297.658 60.4304 297.555 60.2659 297.491 60.0849C297.427 59.9038 297.405 59.7107 297.426 59.5198L297.83 55.7811C297.849 55.4925 297.972 55.2207 298.176 55.0162C298.381 54.8117 298.653 54.6886 298.941 54.6696L302.377 54.3664C302.568 54.3456 302.761 54.3679 302.942 54.4317C303.123 54.4954 303.287 54.599 303.423 54.7348C303.559 54.8705 303.662 55.035 303.726 55.2161C303.79 55.3972 303.812 55.5902 303.792 55.7811L303.387 59.5198C303.385 59.8138 303.267 60.095 303.059 60.3029C302.851 60.5108 302.57 60.6287 302.276 60.6314Z" fill="#B0D7C0"/>
<path d="M290.048 74.0708L286.713 74.2729C286.524 74.2864 286.334 74.2591 286.156 74.1928C285.978 74.1265 285.817 74.0227 285.683 73.8886C285.548 73.7544 285.445 73.593 285.378 73.4152C285.312 73.2374 285.285 73.0475 285.298 72.8582L285.702 69.2205C285.744 68.9234 285.888 68.65 286.109 68.4472C286.331 68.2444 286.615 68.1248 286.915 68.109L290.25 67.8059C290.44 67.7851 290.634 67.8074 290.815 67.8711C290.996 67.9349 291.16 68.0384 291.296 68.1742C291.432 68.3099 291.535 68.4744 291.599 68.6555C291.663 68.8366 291.685 69.0297 291.664 69.2205L291.26 72.8582C291.239 73.1728 291.104 73.469 290.881 73.692C290.658 73.9149 290.362 74.0495 290.048 74.0708Z" fill="#B0D7C0"/>
<path d="M312.179 72.5549L308.541 72.8581C308.352 72.8716 308.162 72.8443 307.984 72.778C307.806 72.7116 307.645 72.6079 307.511 72.4737C307.377 72.3396 307.273 72.1781 307.207 72.0004C307.14 71.8226 307.113 71.6327 307.126 71.4434L307.531 67.7047C307.572 67.4075 307.716 67.1341 307.937 66.9313C308.159 66.7285 308.443 66.609 308.743 66.5931L312.381 66.29C312.572 66.2692 312.765 66.2915 312.946 66.3553C313.127 66.419 313.291 66.5226 313.427 66.6583C313.563 66.7941 313.667 66.9586 313.73 67.1397C313.794 67.3207 313.816 67.5138 313.796 67.7047L313.391 71.5445C313.295 71.8041 313.132 72.0339 312.92 72.2112C312.707 72.3885 312.451 72.507 312.179 72.5549Z" fill="#B0D7C0"/>
<path d="M300.963 73.363L297.527 73.5651C297.338 73.5786 297.148 73.5513 296.97 73.485C296.793 73.4187 296.631 73.3149 296.497 73.1808C296.363 73.0466 296.259 72.8852 296.193 72.7074C296.127 72.5296 296.099 72.3397 296.113 72.1504L296.517 68.4117C296.559 68.1145 296.703 67.8411 296.924 67.6383C297.145 67.4356 297.43 67.316 297.73 67.3002L301.165 66.997C301.356 66.9763 301.549 66.9986 301.73 67.0623C301.911 67.1261 302.076 67.2296 302.211 67.3654C302.347 67.5011 302.451 67.6656 302.515 67.8467C302.578 68.0278 302.601 68.2208 302.58 68.4117L302.176 72.1504C302.121 72.4519 301.975 72.7296 301.759 72.9462C301.542 73.1629 301.264 73.3083 300.963 73.363Z" fill="#B0D7C0"/>
<path d="M288.738 86.5002L285.504 86.7023C285.32 86.7128 285.136 86.6825 284.965 86.6137C284.794 86.5448 284.64 86.439 284.514 86.3039C284.389 86.1688 284.295 86.0077 284.239 85.832C284.183 85.6563 284.166 85.4704 284.19 85.2876L284.595 81.6499C284.636 81.3527 284.78 81.0793 285.001 80.8765C285.223 80.6738 285.507 80.5542 285.807 80.5384L289.041 80.3363C289.227 80.3158 289.416 80.3392 289.592 80.4047C289.767 80.4702 289.926 80.5759 290.053 80.7133C290.181 80.8508 290.275 81.0163 290.327 81.1964C290.379 81.3766 290.389 81.5665 290.354 81.751L289.95 85.3887C289.925 85.6924 289.786 85.9755 289.561 86.1815C289.336 86.3875 289.042 86.5012 288.738 86.5002Z" fill="#B0D7C0"/>
<path d="M310.765 85.2873L307.127 85.4894C306.943 85.4999 306.759 85.4696 306.588 85.4007C306.417 85.3319 306.263 85.2261 306.138 85.091C306.012 84.9559 305.918 84.7947 305.862 84.6191C305.806 84.4434 305.789 84.2575 305.813 84.0747L306.218 80.3359C306.259 80.0388 306.403 79.7654 306.624 79.5626C306.846 79.3598 307.131 79.2403 307.43 79.2244L311.068 79.0223C311.254 79.0018 311.443 79.0253 311.619 79.0907C311.795 79.1562 311.953 79.2619 312.08 79.3994C312.208 79.5369 312.302 79.7023 312.354 79.8825C312.406 80.0626 312.416 80.2525 312.382 80.437L311.977 84.2768C311.914 84.5546 311.76 84.8039 311.541 84.9864C311.322 85.1689 311.05 85.2746 310.765 85.2873Z" fill="#FFE779"/>
<path d="M299.647 85.8937L296.211 86.0958C296.027 86.1063 295.843 86.0761 295.672 86.0072C295.501 85.9384 295.347 85.8326 295.222 85.6975C295.096 85.5624 295.002 85.4012 294.946 85.2255C294.89 85.0499 294.873 84.864 294.897 84.6812L295.302 81.0435C295.343 80.7463 295.487 80.4729 295.708 80.2701C295.93 80.0673 296.215 79.9478 296.514 79.932L299.95 79.7298C300.136 79.7094 300.325 79.7328 300.501 79.7983C300.677 79.8637 300.835 79.9694 300.962 80.1069C301.09 80.2444 301.184 80.4098 301.236 80.59C301.288 80.7702 301.298 80.9601 301.263 81.1445L300.859 84.8833C300.795 85.1611 300.642 85.4104 300.423 85.5929C300.204 85.7754 299.932 85.8811 299.647 85.8937Z" fill="#FFE779"/>
<path d="M347.848 94.1789L506.088 77.8092C506.773 77.7403 507.465 77.8229 508.114 78.051C508.764 78.2791 509.355 78.6471 509.847 79.1291C510.339 79.6111 510.718 80.1953 510.959 80.8403C511.2 81.4852 511.296 82.1753 511.241 82.8616L497.701 236.858C497.546 238.68 496.691 240.372 495.316 241.578C493.94 242.784 492.151 243.41 490.324 243.325L336.631 235.039C335.387 234.966 334.223 234.405 333.39 233.478C332.558 232.55 332.125 231.332 332.185 230.088L341.482 100.848C341.6 99.1689 342.3 97.5836 343.463 96.366C344.625 95.1484 346.176 94.3748 347.848 94.1789Z" fill="#F8AB5D"/>
<path d="M342.092 92.4611L502.151 75.8893C502.846 75.8143 503.549 75.896 504.208 76.1285C504.868 76.361 505.467 76.7382 505.961 77.2326C506.455 77.727 506.833 78.3258 507.065 78.9852C507.298 79.6445 507.379 80.3476 507.304 81.0427L493.663 236.757C493.526 238.605 492.662 240.323 491.26 241.535C489.859 242.747 488.034 243.354 486.185 243.224L330.674 234.837C330.047 234.806 329.432 234.65 328.867 234.378C328.301 234.105 327.796 233.722 327.382 233.251C326.967 232.78 326.651 232.23 326.453 231.635C326.255 231.039 326.178 230.41 326.227 229.784L335.625 99.0291C335.802 97.3647 336.538 95.8093 337.712 94.6166C338.887 93.4238 340.43 92.664 342.092 92.4611Z" fill="#FFE779"/>
<path d="M358.661 126.009L351.386 126.413L350.477 139.954L357.651 139.751L358.661 126.009Z" fill="#6DAFA7"/>
<path d="M350.476 139.954L349.971 146.623L357.145 146.421L357.65 139.752L350.476 139.954Z" fill="#B0D7C0"/>
<path d="M374.324 107.619L367.049 108.124L365.836 125.605L373.01 125.302L374.324 107.619Z" fill="#6DAFA7"/>
<path d="M365.836 125.605L364.32 146.219L371.495 146.017L373.01 125.302L365.836 125.605Z" fill="#B0D7C0"/>
<path d="M380.994 113.984L380.186 124.897L387.36 124.493L388.168 113.479L380.994 113.984Z" fill="#6DAFA7"/>
<path d="M380.184 124.898L378.668 145.916L385.842 145.714L387.358 124.494L380.184 124.898Z" fill="#B0D7C0"/>
<path d="M401.707 123.685L394.533 124.089L394.027 131.769L401.202 131.365L401.707 123.685Z" fill="#6DAFA7"/>
<path d="M394.026 131.769L393.016 145.511L400.19 145.309L401.2 131.365L394.026 131.769Z" fill="#B0D7C0"/>
<path d="M416.964 111.458L416.055 122.978L415.549 130.556L408.375 130.96L408.88 123.281L409.79 111.963L416.964 111.458Z" fill="#6DAFA7"/>
<path d="M408.377 130.961L407.266 145.107L414.44 145.006L415.552 130.556L408.377 130.961Z" fill="#B0D7C0"/>
<path d="M474.663 103.173L461.83 123.483L450.613 108.225C454.958 104.577 460.321 102.354 465.972 101.859C468.931 101.646 471.9 102.094 474.663 103.173Z" fill="#22272E"/>
<path d="M484.667 121.866L461.83 123.483L474.663 103.172C481.736 106.002 485.879 113.075 484.667 121.866Z" fill="#F4C2C9"/>
<path d="M484.666 121.866C484.666 122.17 484.565 122.473 484.565 122.776C482.443 134.801 471.227 144.804 459.404 145.714L461.829 123.483L484.666 121.866Z" fill="#B0D7C0"/>
<path d="M461.828 123.484L459.403 145.714C458.767 145.798 458.125 145.832 457.483 145.815C445.458 145.815 438.082 136.014 440.608 124.191C442.068 117.93 445.592 112.343 450.612 108.327L461.828 123.484Z" fill="white"/>
<path d="M481.433 162.992L476.178 214.223L344.109 211.798L344.311 207.857L372.908 188.153C373.547 187.7 374.314 187.465 375.097 187.484C375.88 187.502 376.636 187.772 377.253 188.254L387.964 196.136C388.361 196.431 388.813 196.643 389.293 196.762C389.772 196.881 390.271 196.904 390.76 196.828C391.249 196.753 391.717 196.582 392.139 196.324C392.561 196.067 392.928 195.728 393.218 195.328L403.828 181.181C404.183 180.707 404.645 180.323 405.176 180.063C405.708 179.802 406.294 179.671 406.886 179.681C407.478 179.691 408.059 179.841 408.581 180.119C409.104 180.398 409.553 180.796 409.891 181.282L419.289 194.317C419.581 194.73 419.954 195.079 420.384 195.344C420.815 195.609 421.294 195.785 421.794 195.86C422.294 195.936 422.805 195.91 423.294 195.783C423.784 195.657 424.243 195.433 424.644 195.125C425.281 194.644 426.053 194.375 426.851 194.356C427.649 194.338 428.432 194.572 429.09 195.024L435.759 199.774C436.175 200.066 436.645 200.272 437.141 200.38C437.638 200.488 438.151 200.494 438.651 200.4C439.15 200.306 439.625 200.113 440.049 199.831C440.472 199.55 440.834 199.187 441.115 198.763L456.07 175.724C456.35 175.301 456.713 174.937 457.136 174.656C457.559 174.375 458.035 174.182 458.534 174.087C459.033 173.993 459.547 174 460.043 174.108C460.54 174.215 461.01 174.421 461.425 174.714L465.77 177.846C466.167 178.142 466.618 178.356 467.099 178.476C467.579 178.595 468.078 178.618 468.567 178.543C469.056 178.468 469.525 178.296 469.947 178.038C470.369 177.779 470.735 177.439 471.025 177.038L481.433 162.992Z" fill="#6DAFA7"/>
<path d="M385.335 179.261H379.576C379.443 179.257 379.311 179.283 379.189 179.335C379.067 179.387 378.957 179.466 378.868 179.564L377.555 180.878C377.366 181.063 377.112 181.167 376.847 181.167C376.583 181.167 376.329 181.063 376.14 180.878L375.13 179.564C375.041 179.466 374.931 179.387 374.809 179.335C374.687 179.283 374.555 179.257 374.422 179.261H368.865C368.748 179.267 368.631 179.247 368.523 179.202C368.415 179.157 368.319 179.088 368.241 179.001C368.164 178.914 368.107 178.81 368.075 178.697C368.043 178.585 368.036 178.467 368.056 178.352L368.865 167.439C368.883 167.177 368.996 166.93 369.181 166.745C369.367 166.559 369.613 166.447 369.875 166.428L386.346 165.822C386.587 165.822 386.818 165.918 386.989 166.088C387.159 166.259 387.255 166.49 387.255 166.731L386.346 178.15C386.36 178.29 386.344 178.433 386.3 178.567C386.256 178.702 386.183 178.826 386.088 178.93C385.993 179.035 385.877 179.119 385.747 179.176C385.617 179.233 385.477 179.262 385.335 179.261Z" fill="white"/>
<path d="M439.297 184.718L433.537 184.617C433.405 184.614 433.273 184.639 433.151 184.691C433.028 184.744 432.919 184.822 432.83 184.921L431.517 186.234C431.424 186.334 431.31 186.412 431.184 186.462C431.057 186.512 430.921 186.533 430.785 186.523C430.649 186.513 430.517 186.473 430.399 186.406C430.281 186.338 430.179 186.245 430.102 186.133L429.091 184.82C429.002 184.721 428.893 184.643 428.771 184.59C428.649 184.538 428.517 184.513 428.384 184.516L422.928 184.415C422.422 184.415 422.119 184.011 422.119 183.405L422.928 172.391C422.941 172.144 423.038 171.909 423.204 171.725C423.369 171.541 423.593 171.419 423.837 171.38L440.308 170.976C440.435 170.978 440.561 171.007 440.677 171.06C440.793 171.113 440.897 171.189 440.982 171.284C441.067 171.378 441.132 171.49 441.173 171.611C441.213 171.732 441.228 171.86 441.217 171.987L440.308 183.708C440.317 183.843 440.297 183.978 440.249 184.105C440.201 184.232 440.127 184.347 440.032 184.442C439.936 184.538 439.821 184.612 439.694 184.66C439.568 184.707 439.432 184.727 439.297 184.718Z" fill="#F4C2C9"/>
<path d="M162.528 476.239C162.124 477.552 161.215 482.807 160.507 487.657C152.954 488.786 145.235 487.843 138.176 484.929C138.681 479.876 139.186 474.622 139.186 474.622C139.186 471.793 163.337 473.814 162.528 476.239Z" fill="#22272E"/>
<path d="M160.508 487.556C159.902 491.8 159.296 495.539 159.296 495.539C159.296 495.539 156.568 501.905 149.696 501.905C142.825 501.905 137.267 496.145 137.369 493.72C137.47 492.609 137.773 488.769 138.177 484.828C145.233 487.755 152.955 488.699 160.508 487.556Z" fill="#F4C2C9"/>
<path d="M137.467 491.801C138.456 492.898 139.502 493.944 140.6 494.933C141.711 495.943 145.147 492.811 149.997 493.417C154.847 494.024 156.363 495.943 156.363 495.943C157.484 495.717 158.549 495.271 159.495 494.63C159.589 497.156 160.101 499.648 161.011 502.006C162.527 505.947 170.206 517.467 170.206 519.69C170.206 521.913 169.701 523.63 168.084 524.338C166.468 525.045 155.757 525.146 146.763 525.348C137.77 525.55 130.798 526.056 129.788 522.519C128.777 518.982 132.92 507.968 134.638 501.198C136.356 494.428 136.052 491.902 137.467 491.801Z" fill="#22272E"/>
<path d="M138.984 510.494C138.984 510.494 149.796 504.735 160.103 510.494" stroke="white" stroke-width="0.808594" stroke-linecap="round" stroke-linejoin="round"/>
<path d="M141.004 504.835C146.619 503.24 152.567 503.24 158.182 504.835" stroke="white" stroke-width="0.808594" stroke-linecap="round" stroke-linejoin="round"/>
<path d="M267.413 483.212C255.894 487.153 243.97 484.727 244.072 484.828C243.667 479.17 243.162 473.208 243.162 473.208C244.678 469.671 266.403 468.055 266.605 469.57C266.605 470.379 267.009 477.048 267.413 483.212Z" fill="#22272E"/>
<path d="M268.022 493.923C268.022 493.923 266.507 498.672 259.939 501.098C253.371 503.523 244.984 496.955 244.883 495.035C244.782 494.226 244.478 489.578 244.074 484.829C244.074 484.728 255.897 487.153 267.416 483.212C267.719 488.77 268.022 493.923 268.022 493.923Z" fill="#F4C2C9"/>
<path d="M244.679 493.619C243.972 493.619 243.466 494.629 243.062 500.995C242.658 507.361 240.637 521.407 243.062 523.529C245.487 525.651 293.889 525.045 299.446 524.64C305.004 524.236 308.036 520.598 306.318 518.173C304.6 515.748 292.676 511.302 282.167 504.229C271.658 497.156 269.132 495.64 267.92 493.922C267.92 493.922 268.526 488.162 265.394 489.072C262.261 489.981 260.139 497.459 256.097 498.469C252.055 499.48 251.55 493.215 244.679 493.619Z" fill="#22272E"/>
<path d="M284.492 504.432C284.492 504.432 281.763 503.623 275.6 510.191" stroke="white" stroke-width="0.808594" stroke-linecap="round" stroke-linejoin="round"/>
<path d="M277.824 500.086C277.824 500.086 272.974 499.884 267.416 507.058" stroke="white" stroke-width="0.808594" stroke-linecap="round" stroke-linejoin="round"/>
<path d="M142.016 486.243L142.622 482.201" stroke="#63737A" stroke-width="0.808594" stroke-linecap="round" stroke-linejoin="round"/>
<path d="M148.986 487.759L149.593 483.717" stroke="#63737A" stroke-width="0.808594" stroke-linecap="round" stroke-linejoin="round"/>
<path d="M156.666 488.062L157.373 484.424" stroke="#63737A" stroke-width="0.808594" stroke-linecap="round" stroke-linejoin="round"/>
<path d="M248.621 485.333L248.318 481.089" stroke="#63737A" stroke-width="0.808594" stroke-linecap="round" stroke-linejoin="round"/>
<path d="M257.008 485.232L256.705 480.584" stroke="#63737A" stroke-width="0.808594" stroke-linecap="round" stroke-linejoin="round"/>
<path d="M264.586 484.02L264.283 479.675" stroke="#63737A" stroke-width="0.808594" stroke-linecap="round" stroke-linejoin="round"/>
<path d="M135.244 249.994C133.515 257.967 132.568 266.089 132.415 274.245C132.112 288.089 142.924 331.438 146.865 346.09C150.806 360.742 149.997 363.066 149.391 365.895C148.785 368.725 142.722 391.157 140.701 414.398C138.68 437.639 131.404 456.333 132.213 463.507C133.324 473.208 137.467 476.037 139.185 477.148C140.903 478.26 155.049 482.807 164.649 480.584C164.649 480.584 174.855 474.117 176.775 465.023C178.695 455.929 177.583 444.914 184.151 415.206C190.719 385.499 193.751 373.272 194.66 361.449C195.165 354.376 195.266 334.166 195.367 318.706C195.468 308.197 195.468 299.81 195.569 299.002C195.873 296.981 200.824 299.305 203.451 292.838C204.563 289.908 205.169 284.35 205.27 278.388C205.472 270.81 204.967 262.524 203.956 257.977C202.34 249.59 136.861 241.102 135.244 249.994Z" fill="#22272E"/>
<path d="M273.882 465.326C272.165 469.57 269.032 474.42 266.203 475.532C263.374 476.643 250.642 478.361 244.175 477.755C244.175 477.755 233.362 474.622 232.251 466.438C231.139 458.253 233.059 449.159 229.422 430.768C225.784 412.377 222.651 379.84 221.742 370.241C220.833 360.641 201.027 332.045 191.731 314.766C182.435 297.487 172.431 265.859 180.717 258.482C189.003 251.106 218.61 247.771 227.401 253.733C227.401 253.733 237.607 278.591 247.812 308.299C257.21 335.581 259.13 344.777 260.443 352.658C260.529 353.374 260.664 354.083 260.847 354.78C261.252 357.205 261.757 363.47 262.464 371.554C264.081 392.067 266.001 423.897 266.809 431.172C267.921 441.277 275.6 461.082 273.882 465.326Z" fill="#22272E"/>
<path d="M137.568 297.79C141.144 294.497 143.996 290.498 145.944 286.045C147.892 281.592 148.894 276.782 148.886 271.922C145.085 271.708 141.304 271.235 137.568 270.507" stroke="#63737A" stroke-width="0.808594" stroke-linecap="round" stroke-linejoin="round"/>
<path d="M225.175 134.295C225.175 134.295 233.461 134.699 246.799 161.376C260.138 188.052 264.887 197.652 264.887 197.652C264.887 197.652 273.678 195.53 288.027 193.206C302.375 190.881 322.585 187.951 322.585 187.951C322.585 187.951 328.041 188.052 330.366 195.833C330.958 197.802 331.046 199.889 330.622 201.902C330.199 203.914 329.276 205.788 327.94 207.352C327.438 207.986 326.775 208.474 326.021 208.767C319.857 211.394 283.884 226.551 271.657 229.178C258.218 232.008 251.65 231.603 239.726 215.234C227.803 198.864 218.405 186.132 214.06 179.564C209.715 172.693 206.583 135.305 225.175 134.295Z" fill="#6DAFA7"/>
<path d="M264.889 197.551C264.889 197.551 260.544 199.572 259.635 202.603" stroke="#22272E" stroke-width="0.808594" stroke-linecap="round" stroke-linejoin="round"/>
<path d="M323.09 188.76C323.09 188.76 327.537 187.143 328.648 186.537C329.76 185.931 332.185 181.687 334.206 179.059C336.227 176.432 341.986 174.917 343.603 175.22C344.043 175.279 344.466 175.425 344.848 175.651C345.23 175.877 345.562 176.177 345.826 176.533C345.826 176.533 350.878 174.714 354.314 173.3C357.75 171.885 364.116 168.753 365.025 171.279C365.53 172.795 361.589 175.018 358.861 176.533C355.527 178.453 353.304 179.868 353.304 179.868C353.833 180.18 354.288 180.604 354.637 181.11C354.986 181.616 355.221 182.192 355.325 182.798C355.729 184.92 356.84 187.244 354.819 190.478C354.213 191.387 356.537 193.913 354.718 196.238C351.586 199.976 344.007 201.896 339.965 203.109C335.923 204.321 326.425 204.928 326.425 204.928C326.425 204.928 323.394 204.22 322.08 197.652C320.766 191.084 323.09 188.76 323.09 188.76Z" fill="#F4C2C9"/>
<path d="M345.829 176.533C345.829 176.533 346.536 178.352 347.345 181.08C348.153 183.808 348.759 185.93 346.637 186.031C344.515 186.132 342.595 182.899 341.787 181.282" stroke="#E26E85" stroke-width="0.808594" stroke-linecap="round" stroke-linejoin="round"/>
<path d="M343.199 183.606C343.199 183.606 345.523 188.254 340.168 192.296" stroke="#E26E85" stroke-width="0.808594" stroke-linecap="round" stroke-linejoin="round"/>
<path d="M353.407 179.867L347.748 182.495" stroke="#E26E85" stroke-width="0.808594" stroke-linecap="round" stroke-linejoin="round"/>
<path d="M344.92 185.426C344.92 185.426 343.909 187.043 344.92 187.952C345.93 188.861 351.488 186.84 355.53 184.516" stroke="#E26E85" stroke-width="0.808594" stroke-linecap="round" stroke-linejoin="round"/>
<path d="M345.831 188.153C345.358 188.404 344.999 188.827 344.829 189.335C344.66 189.843 344.693 190.397 344.922 190.882C345.73 192.7 350.075 191.993 354.824 190.477" stroke="#E26E85" stroke-width="0.808594" stroke-linecap="round" stroke-linejoin="round"/>
<path d="M346.738 191.993C346.738 191.993 344.212 192.296 345.525 194.822C346.333 196.338 351.184 195.833 352.194 196.237" stroke="#E26E85" stroke-width="0.808594" stroke-linecap="round" stroke-linejoin="round"/>
<path d="M317.231 189.669C316.423 191.084 315.413 193.812 316.12 198.662C316.318 200.756 316.984 202.778 318.068 204.579C319.152 206.381 320.628 207.915 322.385 209.07" stroke="#22272E" stroke-width="0.808594" stroke-linecap="round" stroke-linejoin="round"/>
<path d="M192.44 97.3127C192.44 97.3127 189.206 113.581 187.387 118.027C185.569 122.473 195.471 129.446 205.374 129.85C215.276 130.254 214.266 124.494 214.266 124.494L217.196 108.327C217.196 108.428 195.976 93.5739 192.44 97.3127Z" fill="#F4C2C9"/>
<path d="M196.881 102.162C195.467 114.49 204.359 120.452 214.261 125.1V124.494L215.878 115.905C208.502 113.479 202.035 108.225 196.881 102.162Z" fill="#FFB8B8"/>
<path d="M149.999 129.951C152.222 123.383 160.71 119.442 167.581 120.048C174.655 120.655 188.195 120.857 201.23 124.899C223.46 131.77 228.816 135.812 230.13 137.024C237.506 144.098 236.799 154.606 232.555 183.607C229.826 202.705 227.502 207.555 228.109 216.953C228.715 226.35 230.433 243.023 231.544 246.458C232.656 249.894 229.826 255.856 227.401 257.978C224.976 260.1 205.373 264.546 187.184 264.142C168.996 263.738 140.399 258.786 135.852 255.755C131.305 252.723 128.072 247.469 129.082 242.922C130.339 235.971 131.957 229.09 133.932 222.308C136.762 212.709 136.964 200.179 141.41 180.07C144.846 165.216 145.351 143.693 149.999 129.951Z" fill="#6DAFA7"/>
<path d="M186.072 115.602C186.176 115.373 186.333 115.172 186.53 115.015C186.727 114.859 186.958 114.751 187.205 114.702C187.452 114.653 187.707 114.663 187.949 114.731C188.191 114.8 188.414 114.925 188.598 115.097C190.518 117.118 194.661 120.149 202.138 121.564C213.557 123.686 214.668 121.968 214.668 121.968C214.668 121.968 216.487 122.574 216.689 124.09C216.749 126.541 216.477 128.988 215.881 131.366C215.274 133.285 206.786 133.488 200.016 132.073C194.034 130.976 188.512 128.128 184.152 123.888C183.807 123.556 183.574 123.125 183.483 122.654C183.393 122.184 183.45 121.697 183.647 121.261C184.253 119.745 185.263 117.522 186.072 115.602Z" fill="#6DAFA7"/>
<path d="M235.889 78.1129C235.988 82.444 235.303 86.7573 233.868 90.8449C231.847 96.0994 228.512 110.751 221.944 115.5C215.376 120.25 201.028 119.34 194.763 107.114C188.498 94.8868 190.519 82.0538 193.752 71.747C196.986 61.4401 210.324 57.7014 221.944 61.9454C233.565 66.1894 235.889 73.5658 235.889 78.1129Z" fill="#F4C2C9"/>
<path d="M193.445 85.1867C194.134 86.0905 194.71 87.0745 195.162 88.1171C196.072 90.2391 197.992 89.0265 198.699 85.1867C199.406 81.3469 201.023 78.6187 202.236 78.8208C203.793 79.1931 205.431 79.0261 206.881 78.3469C208.331 77.6678 209.508 76.5167 210.219 75.082C212.745 70.4338 213.856 71.1412 213.856 71.1412C213.856 71.1412 215.877 66.2909 221.132 73.2632C226.386 80.2354 229.721 85.692 235.986 84.5805C242.251 83.4689 247.808 73.2632 243.059 63.4616C238.31 53.66 223.355 51.3359 212.239 54.2663C201.124 57.1966 195.365 54.7715 188.695 60.4302C182.026 66.0888 183.643 72.0506 183.239 78.7197C182.835 85.3888 179.399 88.9255 183.946 94.8873C188.493 100.849 187.281 106.407 189.807 109.741C189.807 109.741 192.535 100.95 192.232 94.5842C191.929 88.2182 193.445 85.1867 193.445 85.1867Z" fill="#22272E"/>
<path d="M223.461 90.7436C223.389 93.2841 222.34 95.699 220.534 97.4867C218.727 99.2744 216.301 100.297 213.76 100.343C212.495 100.333 211.244 100.07 210.082 99.5684C208.92 99.0672 207.87 98.3383 206.994 97.4247C206.118 96.5112 205.434 95.4315 204.982 94.2493C204.53 93.0671 204.32 91.8064 204.363 90.5415C204.355 89.2341 204.605 87.9379 205.098 86.7272C205.592 85.5165 206.32 84.415 207.239 83.4858C208.159 82.5566 209.253 81.8179 210.459 81.3121C211.665 80.8062 212.958 80.5431 214.266 80.5378C215.545 80.5891 216.8 80.8956 217.959 81.4394C219.118 81.9831 220.156 82.7531 221.013 83.704C221.87 84.6549 222.527 85.7676 222.948 86.9765C223.368 88.1855 223.543 89.4663 223.461 90.7436Z" stroke="#22272E" stroke-width="0.808594" stroke-linecap="round" stroke-linejoin="round"/>
<path d="M239.045 96.7287C240.449 91.9065 238.851 87.2002 235.476 86.217C232.1 85.2337 228.225 88.3458 226.821 93.168C225.416 97.9902 227.014 102.696 230.389 103.68C233.765 104.663 237.64 101.551 239.045 96.7287Z" stroke="#22272E" stroke-width="0.808594" stroke-linecap="round" stroke-linejoin="round"/>
<path d="M226.997 92.8662C226.997 92.8662 226.896 90.8453 223.359 91.9568" stroke="#22272E" stroke-width="0.808594" stroke-linecap="round" stroke-linejoin="round"/>
<path d="M205.171 86.3986L193.449 84.2766" stroke="#22272E" stroke-width="0.808594" stroke-linecap="round" stroke-linejoin="round"/>
<path d="M194.457 87.005C194.457 87.005 193.548 81.6495 189.203 81.5484C184.858 81.4474 182.231 94.7856 193.043 96.6045" fill="#F4C2C9"/>
<path d="M188.498 85.6907C189.002 85.5618 189.533 85.5894 190.02 85.77C190.507 85.9505 190.928 86.2754 191.226 86.7012C191.513 87.2269 191.653 87.8204 191.631 88.419C191.631 88.7221 191.529 88.9242 191.529 89.2274C191.529 89.5305 191.428 89.6315 191.428 89.8336C191.35 90.1644 191.316 90.5043 191.327 90.8441C191.306 90.9696 191.313 91.0984 191.348 91.2208C191.383 91.3433 191.445 91.4563 191.529 91.5514C192.073 92.1414 192.725 92.6216 193.449 92.9661C192.97 93.1389 192.457 93.2014 191.95 93.1489C191.442 93.0964 190.953 92.9303 190.519 92.663C190.034 92.2922 189.708 91.75 189.61 91.1472C189.539 90.6069 189.573 90.0579 189.711 89.5305C189.812 89.3284 189.812 89.0253 189.913 88.8232C190.014 88.6211 190.014 88.52 190.014 88.3179C190.115 88.058 190.115 87.7695 190.014 87.5096C189.904 87.1163 189.713 86.7507 189.451 86.4372C189.19 86.1236 188.865 85.8691 188.498 85.6907Z" fill="#22272E"/>
<path d="M225.581 91.249C225.65 92.3895 225.888 93.5134 226.288 94.5836C226.463 95.0518 226.701 95.4938 226.996 95.8972C227.42 96.397 227.73 96.9832 227.905 97.615C228.067 98.291 228.079 98.9943 227.939 99.6752C227.799 100.356 227.512 100.998 227.097 101.556C226.728 102.093 226.245 102.542 225.682 102.869C225.148 103.234 224.509 103.412 223.863 103.375C224.758 102.717 225.428 101.8 225.783 100.747C226.176 99.8947 226.283 98.9375 226.086 98.0192C225.908 97.5526 225.67 97.1111 225.379 96.7056C225.071 96.1039 224.866 95.455 224.773 94.7857C224.727 93.5563 225.006 92.3366 225.581 91.249Z" fill="#22272E"/>
<path d="M215.478 107.315C214.064 107.263 212.692 106.82 211.514 106.035C210.337 105.25 209.4 104.154 208.809 102.869" stroke="#22272E" stroke-width="0.808594" stroke-linecap="round" stroke-linejoin="round"/>
<path d="M211.334 92.6643C211.141 92.618 210.96 92.5343 210.8 92.4178C210.639 92.3013 210.504 92.1544 210.401 91.9854C210.297 91.8165 210.228 91.6288 210.198 91.4332C210.167 91.2376 210.175 91.0379 210.222 90.8454L210.626 89.3297C210.673 89.1372 210.756 88.9557 210.873 88.7956C210.989 88.6355 211.136 88.4999 211.305 88.3967C211.474 88.2934 211.662 88.2245 211.857 88.1939C212.053 88.1633 212.253 88.1715 212.445 88.2182C212.638 88.2645 212.819 88.3482 212.979 88.4647C213.139 88.5812 213.275 88.7281 213.378 88.8971C213.481 89.066 213.55 89.2537 213.581 89.4493C213.612 89.6449 213.603 89.8446 213.557 90.0371L213.152 91.5528C213.106 91.7453 213.022 91.9268 212.906 92.0869C212.79 92.247 212.643 92.3826 212.474 92.4858C212.305 92.5891 212.117 92.658 211.921 92.6886C211.726 92.7192 211.526 92.711 211.334 92.6643Z" fill="#22272E"/>
<path d="M227.398 96.8061C227.206 96.7599 227.024 96.6761 226.864 96.5596C226.704 96.4432 226.568 96.2962 226.465 96.1273C226.362 95.9583 226.293 95.7707 226.262 95.5751C226.232 95.3794 226.24 95.1797 226.287 94.9873L226.691 93.4716C226.737 93.2791 226.821 93.0975 226.937 92.9374C227.054 92.7773 227.201 92.6418 227.37 92.5385C227.539 92.4353 227.726 92.3664 227.922 92.3357C228.117 92.3051 228.317 92.3134 228.51 92.36C228.702 92.4063 228.884 92.4901 229.044 92.6066C229.204 92.723 229.339 92.87 229.443 93.0389C229.546 93.2079 229.615 93.3955 229.645 93.5911C229.676 93.7867 229.668 93.9865 229.621 94.1789L229.217 95.6946C229.171 95.8871 229.087 96.0687 228.97 96.2288C228.854 96.3889 228.707 96.5244 228.538 96.6277C228.369 96.7309 228.181 96.7998 227.986 96.8304C227.79 96.8611 227.591 96.8528 227.398 96.8061Z" fill="#22272E"/>
<path d="M215.376 85.692C214.265 85.8941 213.76 84.3784 212.143 84.4795C209.617 84.5805 208.202 85.0857 208 83.9742C207.899 83.1658 209.819 81.6501 212.244 81.5491C215.781 81.5491 217.397 85.3889 215.376 85.692Z" fill="#22272E"/>
<path d="M227.398 88.7227C228.105 89.329 229.116 88.2175 230.126 88.9248C231.642 89.8343 232.147 90.6426 232.652 89.9353C233.158 89.228 232.652 87.5102 231.238 86.6007C228.914 84.984 225.882 87.6112 227.398 88.7227Z" fill="#22272E"/>
<path d="M100.082 257.673C99.401 259.108 98.9574 260.644 98.7682 262.22C98.7682 263.938 100.183 279.803 99.7787 282.935C99.3745 286.068 98.364 292.231 97.7577 293.141C97.1514 294.05 93.5137 291.221 93.4127 281.722C93.3116 272.224 90.0781 259.189 92.8064 257.673C95.5346 256.158 99.2734 256.461 100.082 257.673Z" fill="#F4C2C9"/>
<path d="M35.5103 305.885L59.8037 267.797C60.0726 267.377 60.4232 267.013 60.835 266.729C61.2467 266.445 61.7113 266.245 62.2015 266.142C62.6917 266.039 63.1977 266.034 63.6898 266.128C64.1818 266.222 64.6502 266.413 65.0673 266.689L122.258 302.862C122.681 303.13 123.046 303.479 123.331 303.889C123.617 304.299 123.817 304.761 123.921 305.249C124.025 305.737 124.029 306.241 123.935 306.731C123.841 307.221 123.649 307.687 123.371 308.102L99.0781 346.19C98.8091 346.61 98.4585 346.974 98.0468 347.258C97.6351 347.542 97.1705 347.742 96.6803 347.845C96.1901 347.948 95.6841 347.953 95.192 347.859C94.6999 347.765 94.2316 347.574 93.8145 347.298L36.6237 311.125C35.789 310.568 35.2055 309.709 34.9976 308.73C34.7896 307.752 34.9736 306.731 35.5103 305.885Z" fill="#22272E"/>
<path d="M102.519 335.282L114.554 316.123C114.679 315.917 114.852 315.746 115.057 315.624C115.262 315.502 115.493 315.432 115.731 315.422C115.968 315.412 116.205 315.462 116.419 315.566C116.634 315.67 116.82 315.826 116.961 316.021L118.866 318.569C119.054 318.813 119.164 319.11 119.182 319.419C119.2 319.728 119.125 320.036 118.967 320.301L108.136 337.626C107.991 337.887 107.763 338.09 107.489 338.201C107.216 338.312 106.913 338.325 106.631 338.238L103.522 337.626C103.288 337.563 103.072 337.447 102.888 337.287C102.705 337.127 102.56 336.926 102.463 336.701C102.367 336.475 102.322 336.231 102.331 335.985C102.341 335.739 102.405 335.499 102.519 335.282Z" fill="#6DAFA7"/>
<path d="M98.7185 258.176C98.7185 258.176 98.1276 275.682 98.0291 279.404C97.9307 283.127 98.1276 290.471 97.2412 293.993C96.3549 297.514 94.8776 306.367 92.2185 306.971C89.5594 307.575 92.4155 296.105 92.4155 293.892C92.1992 291.351 91.8042 288.829 91.2337 286.346C91.2337 286.346 90.2488 291.88 89.5594 294.294C88.87 296.709 84.3397 304.255 82.5669 303.953C80.7942 303.651 82.9609 298.017 84.3397 294.596C85.62 291.477 86.1124 284.938 86.1124 284.938C85.3444 286.937 84.4564 288.886 83.4533 290.773C82.2715 292.785 78.2336 299.023 76.5593 298.721C74.8851 298.419 77.6427 292.081 79.3169 289.163C80.2651 287.641 80.8706 285.923 81.0896 284.133C81.0896 284.133 78.4306 286.849 76.7563 288.157C75.082 289.465 69.1729 292.383 68.6805 290.874C68.1881 289.365 70.8472 287.755 73.3093 285.441C75.7714 283.127 78.4306 278.499 79.0215 277.694C79.6124 276.889 77.9381 269.847 80.5972 265.118C83.2563 260.39 84.8321 258.478 85.5215 255.259C86.2109 252.039 98.4231 255.862 98.7185 258.176Z" fill="#F4C2C9"/>
<path d="M161.386 120.404C161.386 120.404 149.971 119.287 136.253 136.754C122.536 154.221 109.018 168.845 105.213 175.751C101.408 182.656 92.9974 208.552 88.792 228.964C84.5866 249.376 84.186 253.032 84.2862 255.266C84.3863 257.297 94.4994 260.141 101.108 260.039C101.689 260.051 102.259 259.882 102.742 259.556C103.226 259.229 103.599 258.76 103.811 258.211C106.415 252.017 115.526 230.894 119.131 223.176C123.337 214.137 128.243 200.732 128.844 199.819C129.444 198.905 156.78 170.673 161.886 163.26C166.993 155.846 171.899 143.863 170.798 133.301C169.596 121.826 163.789 120.303 161.386 120.404Z" fill="#6DAFA7"/>
<path d="M85.4766 250.411C88.2578 251.948 96.6013 256.204 104.739 255.021" stroke="#22272E" stroke-width="0.808594" stroke-linecap="round" stroke-linejoin="round"/>
<path d="M348.657 278.086L365.633 222.51C365.88 221.769 366.356 221.126 366.991 220.672C367.626 220.218 368.389 219.977 369.17 219.984L469.611 222.813C470.002 222.817 470.386 222.911 470.735 223.088C471.083 223.264 471.387 223.519 471.621 223.831C471.856 224.144 472.015 224.506 472.087 224.89C472.159 225.275 472.141 225.67 472.036 226.046L452.332 293.849C452.094 294.677 451.562 295.39 450.837 295.855C450.112 296.319 449.242 296.505 448.391 296.375L350.88 281.319C350.502 281.299 350.133 281.192 349.802 281.006C349.471 280.821 349.187 280.562 348.973 280.25C348.758 279.937 348.618 279.58 348.563 279.204C348.508 278.829 348.54 278.446 348.657 278.086Z" fill="#22272E"/>
<path d="M347.747 280.915L289.342 286.371L389.48 311.027C391.901 311.634 394.435 311.634 396.856 311.027L451.22 296.981L347.747 280.915Z" fill="#63737A"/>
<path d="M389.581 311.026L289.443 286.371C289.45 287.295 289.76 288.191 290.326 288.921C290.892 289.651 291.683 290.175 292.576 290.412L386.954 315.472C390.938 316.517 395.133 316.447 399.08 315.27L448.593 300.719C449.422 300.481 450.149 299.975 450.661 299.281C451.172 298.586 451.44 297.742 451.422 296.88L397.059 310.925C394.618 311.613 392.04 311.648 389.581 311.026Z" fill="#22272E"/>
<path d="M414.639 232.311L407.566 256.36C407.463 256.653 407.271 256.908 407.018 257.088C406.765 257.269 406.463 257.368 406.152 257.371L366.44 253.935C366.24 253.92 366.045 253.86 365.871 253.761C365.696 253.662 365.545 253.526 365.429 253.362C365.313 253.197 365.235 253.01 365.2 252.812C365.166 252.614 365.175 252.411 365.227 252.217L371.897 230.189C371.979 229.902 372.15 229.649 372.387 229.467C372.623 229.286 372.912 229.184 373.21 229.178L413.326 230.593C413.533 230.599 413.736 230.652 413.92 230.746C414.104 230.841 414.265 230.975 414.391 231.14C414.517 231.304 414.604 231.495 414.647 231.697C414.69 231.9 414.688 232.11 414.639 232.311Z" fill="white"/>
<path d="M407.062 236.656L402.616 251.106L371.695 248.883L372.807 245.649L384.225 240.597L390.692 245.649L407.062 236.656Z" fill="#F4C2C9"/>
<path d="M383.92 266.162L380.99 275.256C380.886 275.563 380.677 275.823 380.399 275.99C380.122 276.156 379.794 276.219 379.474 276.166L360.376 273.639C360.18 273.621 359.991 273.558 359.823 273.456C359.654 273.354 359.511 273.215 359.404 273.05C359.297 272.884 359.229 272.697 359.205 272.502C359.181 272.306 359.201 272.108 359.265 271.922L361.791 263.434C361.895 263.14 362.086 262.886 362.339 262.705C362.592 262.525 362.895 262.426 363.206 262.423L382.708 264.444C382.917 264.436 383.124 264.48 383.312 264.572C383.499 264.665 383.66 264.803 383.781 264.973C383.901 265.144 383.977 265.342 384.002 265.55C384.026 265.757 383.998 265.968 383.92 266.162Z" fill="#FFE779"/>
<path d="M413.832 269.194L410.599 279.198C410.495 279.505 410.286 279.765 410.008 279.931C409.731 280.098 409.403 280.16 409.083 280.107L390.895 277.682C390.691 277.656 390.497 277.585 390.325 277.474C390.153 277.363 390.008 277.215 389.901 277.04C389.795 276.865 389.728 276.669 389.708 276.465C389.688 276.261 389.713 276.056 389.783 275.863L392.814 266.466C392.907 266.173 393.099 265.921 393.357 265.755C393.616 265.589 393.924 265.519 394.229 265.556L412.62 267.375C412.832 267.387 413.038 267.447 413.222 267.552C413.407 267.657 413.564 267.804 413.682 267.981C413.8 268.157 413.875 268.359 413.901 268.57C413.927 268.78 413.903 268.994 413.832 269.194Z" fill="#6DAFA7"/>
<path d="M448.187 272.63L444.752 283.745C444.648 284.052 444.439 284.312 444.161 284.478C443.883 284.645 443.555 284.707 443.236 284.654L421.309 281.724C421.106 281.698 420.911 281.627 420.739 281.516C420.567 281.405 420.422 281.257 420.315 281.082C420.209 280.907 420.143 280.711 420.122 280.507C420.102 280.303 420.127 280.098 420.197 279.905L423.532 269.497C423.624 269.204 423.816 268.953 424.074 268.787C424.333 268.62 424.641 268.55 424.946 268.588L446.874 270.811C447.091 270.815 447.305 270.87 447.497 270.971C447.69 271.072 447.856 271.216 447.984 271.393C448.111 271.569 448.196 271.773 448.231 271.987C448.266 272.202 448.251 272.422 448.187 272.63Z" fill="#F4C2C9"/>
<path d="M436.365 237.161C435.968 238.669 435.073 239.997 433.826 240.933C432.579 241.868 431.053 242.355 429.494 242.315C426.564 242.113 425.048 239.586 425.857 236.757C426.303 235.409 427.153 234.23 428.292 233.38C429.431 232.531 430.803 232.052 432.223 232.008C432.865 231.982 433.505 232.107 434.09 232.373C434.675 232.64 435.19 233.039 435.593 233.54C435.996 234.042 436.275 234.63 436.41 235.259C436.544 235.888 436.529 236.539 436.365 237.161Z" fill="#FFE779"/>
<path d="M443.539 233.827L458.292 234.332" stroke="#63737A" stroke-width="0.808594" stroke-linecap="round" stroke-linejoin="round"/>
<path d="M420.5 253.025L452.128 255.248" stroke="#63737A" stroke-width="0.808594" stroke-linecap="round" stroke-linejoin="round"/>
<path d="M441.824 239.789L456.577 240.395" stroke="#63737A" stroke-width="0.808594" stroke-linecap="round" stroke-linejoin="round"/>
<path d="M522.76 88.8243L445.964 94.7861C445.505 94.8158 445.045 94.7473 444.615 94.5851C444.184 94.423 443.794 94.1709 443.469 93.8458C443.143 93.5206 442.891 93.1299 442.729 92.6996C442.567 92.2693 442.499 91.8093 442.528 91.3505L445.762 46.9907C445.853 45.7045 446.385 44.4893 447.269 43.5503C448.153 42.6114 449.334 42.0063 450.612 41.8373L528.62 31.2273C529.095 31.1682 529.577 31.2146 530.031 31.3634C530.486 31.5122 530.901 31.7596 531.249 32.0879C531.597 32.4162 531.867 32.8173 532.042 33.2624C532.216 33.7076 532.29 34.1859 532.258 34.6629L527.913 83.7719C527.767 85.0787 527.175 86.2951 526.236 87.2157C525.297 88.1362 524.069 88.7044 522.76 88.8243Z" fill="#6DAFA7"/>
<path d="M520.234 87.2073L443.438 93.1691C442.98 93.1988 442.52 93.1303 442.089 92.9682C441.659 92.806 441.268 92.554 440.943 92.2288C440.618 91.9037 440.366 91.5129 440.204 91.0826C440.042 90.6523 439.973 90.1924 440.003 89.7335L443.236 45.3737C443.328 44.0876 443.86 42.8723 444.744 41.9334C445.628 40.9944 446.808 40.3893 448.087 40.2203L526.095 29.6104C526.57 29.5512 527.051 29.5977 527.506 29.7464C527.96 29.8952 528.376 30.1426 528.724 30.4709C529.071 30.7992 529.342 31.2003 529.516 31.6455C529.691 32.0907 529.765 32.5689 529.733 33.046L525.388 82.155C525.277 83.4749 524.695 84.711 523.75 85.6383C522.804 86.5656 521.556 87.1224 520.234 87.2073Z" fill="#B0D7C0"/>
<path d="M469.11 57.4988C468.967 59.0084 468.322 60.4265 467.278 61.5258C466.233 62.6252 464.85 63.3421 463.35 63.5617C462.692 63.6478 462.024 63.5817 461.396 63.3685C460.769 63.1552 460.198 62.8004 459.73 62.3317C459.261 61.8629 458.906 61.2926 458.693 60.6648C458.48 60.0371 458.413 59.3688 458.5 58.7114C458.62 57.2104 459.244 55.7943 460.272 54.6935C461.299 53.5926 462.669 52.8719 464.158 52.6486C467.19 52.2444 469.312 54.4674 469.11 57.4988Z" fill="#22272E"/>
<path d="M467.591 76.7992L457.082 77.8097C456.555 77.8665 456.022 77.8027 455.523 77.6232C455.024 77.4437 454.573 77.1531 454.203 76.7735C453.833 76.3939 453.554 75.9351 453.388 75.4319C453.221 74.9287 453.172 74.3942 453.242 73.8689C453.502 71.1895 454.645 68.6727 456.493 66.7151C458.341 64.7575 460.788 63.4705 463.448 63.0568C468.702 62.4505 472.744 66.4924 472.239 72.05C472.11 73.2487 471.582 74.3692 470.738 75.2308C469.895 76.0924 468.786 76.6449 467.591 76.7992Z" fill="#22272E"/>
<path d="M481.535 52.0434L514.275 48.2036" stroke="#63737A" stroke-width="0.808594" stroke-linecap="round" stroke-linejoin="round"/>
<path d="M480.727 61.0354L513.466 57.4988" stroke="#63737A" stroke-width="0.808594" stroke-linecap="round" stroke-linejoin="round"/>
<path d="M480.02 70.0286L499.724 68.1086" stroke="#63737A" stroke-width="0.808594" stroke-linecap="round" stroke-linejoin="round"/>
<path d="M435.658 10.0068C431.717 6.06591 426.16 3.74183 419.289 2.93345C414.727 2.26053 410.068 2.89106 405.849 4.75229C400.999 6.87429 397.361 10.613 394.633 16.0696L390.086 17.9895L392.713 20.7178L404.536 22.8398C405.35 20.2818 406.772 17.9589 408.679 16.0696C410.7 14.0486 413.428 13.2403 416.863 13.7455C420.299 14.2507 422.623 15.5644 423.533 17.6864C424.442 19.8339 424.549 22.2364 423.836 24.4565C423.223 26.5319 422.031 28.3895 420.4 29.812C419.376 30.7247 418.217 31.4745 416.964 32.0351L412.923 34.056C408.982 35.9759 406.355 37.7948 405.041 39.6136C403.738 41.634 402.686 43.8057 401.908 46.0807L397.867 47.3943L400.494 50.1225L412.619 53.4571C413.087 51.5065 413.836 49.6343 414.843 47.8995C416.058 46.006 417.82 44.5262 419.895 43.6555L424.038 41.7356C427.279 40.3753 430.335 38.6097 433.132 36.4812C436.239 33.8379 438.403 30.2558 439.296 26.2754C441.014 19.6063 439.801 14.1497 435.658 10.0068Z" fill="#F8AB5D"/>
<path d="M404.74 57.3981L404.335 57.297C403.459 57.0719 402.547 57.0246 401.652 57.158C400.757 57.2914 399.898 57.6028 399.126 58.0738C398.353 58.5448 397.683 59.1658 397.155 59.9002C396.626 60.6345 396.251 61.4673 396.05 62.3494C395.48 64.1335 395.612 66.0677 396.42 67.7576C397.227 69.4474 398.649 70.7657 400.395 71.4437L400.799 71.6458C404.436 72.8583 408.276 70.6353 409.388 66.5934C410.499 62.5515 408.377 58.4086 404.74 57.3981Z" fill="#F8AB5D"/>
<path d="M403.323 2.02428C407.569 0.260502 412.201 -0.366385 416.762 0.20542C423.634 1.0138 429.09 3.33789 433.132 7.27873C437.174 11.2196 438.488 16.8782 436.669 23.7494C435.749 27.7193 433.59 31.2936 430.505 33.9552C428.787 35.4709 425.756 37.1887 421.411 39.2097L417.268 41.1296C415.193 42.0002 413.431 43.4801 412.215 45.3736C411.27 47.1379 410.525 49.0019 409.992 50.9312L397.867 47.5966C399.584 42.3422 400.999 38.9065 402.414 37.0877C403.828 35.2688 406.355 33.45 410.295 31.5301L414.337 29.5091C415.583 28.9356 416.739 28.187 417.773 27.2861C419.457 25.9103 420.66 24.0348 421.208 21.9306C421.823 19.6982 421.717 17.3289 420.905 15.1604C420.097 13.0384 417.773 11.7248 414.236 11.2196C410.7 10.7143 408.072 11.5227 406.051 13.5437C404.103 15.4002 402.675 17.7343 401.908 20.3138L390.086 18.1918C392.915 10.007 397.159 4.75255 403.323 2.02428ZM402.01 55.7814L402.414 55.8825C404.218 56.4973 405.713 57.7904 406.58 59.4879C407.448 61.1854 407.621 63.1541 407.062 64.9768C405.95 69.0186 402.01 71.2417 398.473 70.0291L398.069 69.827C396.323 69.1491 394.901 67.8308 394.094 66.1409C393.287 64.4511 393.154 62.5169 393.724 60.7328C394.167 58.9782 395.289 57.4713 396.842 56.543C398.396 55.6146 400.254 55.3408 402.01 55.7814Z" fill="#FFE779"/>
<path d="M128.375 64.3705H167.177L171.118 66.8967C171.406 67.083 171.739 67.1876 172.083 67.1995C172.426 67.2114 172.766 67.1302 173.066 66.9643C173.367 66.7985 173.617 66.5543 173.79 66.2577C173.963 65.9611 174.052 65.6232 174.048 65.2799V37.8961C174.048 36.5561 173.516 35.2711 172.568 34.3235C171.621 33.376 170.336 32.8438 168.996 32.8438H128.375C127.035 32.8438 125.75 33.376 124.802 34.3235C123.855 35.2711 123.322 36.5561 123.322 37.8961V59.3181C123.322 60.6581 123.855 61.9432 124.802 62.8907C125.75 63.8382 127.035 64.3705 128.375 64.3705Z" fill="#F4C2C9"/>
<path d="M161.517 41.8369H135.648" stroke="#22272E" stroke-width="0.808594" stroke-linecap="round" stroke-linejoin="round"/>
<path d="M161.517 48.9102H135.648" stroke="#22272E" stroke-width="0.808594" stroke-linecap="round" stroke-linejoin="round"/>
<path d="M161.518 55.9829H146.664" stroke="#22272E" stroke-width="0.808594" stroke-linecap="round" stroke-linejoin="round"/>
</svg>
