<svg width="128" height="43" viewBox="0 0 128 43" fill="none" xmlns="http://www.w3.org/2000/svg">
<path d="M32.4362 10.5661C29.7791 7.90863 26.3936 6.09874 22.7079 5.36534C19.0222 4.63194 15.2018 5.008 11.7298 6.44597C8.25781 7.88393 5.29021 10.3193 3.20231 13.4438C1.11442 16.5684 0 20.242 0 24C0 27.758 1.11442 31.4316 3.20231 34.5562C5.29021 37.6807 8.25781 40.1161 11.7298 41.554C15.2018 42.992 19.0222 43.3681 22.7079 42.6347C26.3936 41.9013 29.7791 40.0914 32.4362 37.4339C35.9987 33.8708 38 29.0385 38 24C38 18.9615 35.9987 14.1292 32.4362 10.5661ZM4.95527 17.5702C5.91266 15.4467 7.33129 13.5632 9.10806 12.0567C10.8848 10.5503 12.9749 9.45875 15.2264 8.86154C17.478 8.26433 19.8343 8.17646 22.1241 8.6043C24.4138 9.03214 26.5794 9.9649 28.4635 11.3348C23.7998 10.8943 17.9616 13.278 13.229 18.002C11.4427 19.7853 9.92947 21.8225 8.73803 24.0475C7.11754 22.1195 5.83823 19.9289 4.95527 17.5702ZM15.4312 39.6102C11.825 38.644 8.68144 36.4237 6.56511 33.3481C4.44878 30.2725 3.49831 26.5431 3.88442 22.8297C5.84481 27.0875 10.7935 30.9566 17.288 32.6839C19.7126 33.3416 22.2219 33.6327 24.7326 33.5475C23.8793 35.9078 22.6324 38.1067 21.0448 40.0507C19.1614 40.2412 17.2589 40.0861 15.4312 39.593V39.6102ZM27.2544 21.5516C26.6142 19.1161 25.619 16.7881 24.3007 14.6425C26.77 14.2029 29.296 14.1854 31.7712 14.5907C32.8791 16.1244 33.6958 17.8487 34.1807 19.6775C35.1486 23.2842 34.7985 27.1179 33.1933 30.4897C31.5882 33.8614 28.8332 36.5502 25.4235 38.073C28.118 34.2643 28.9816 28.0202 27.2544 21.5516Z" fill="#5C9DED"/>
<path d="M58.094 23.642C58.094 23.066 58.01 22.526 57.842 22.022C57.686 21.506 57.446 21.056 57.122 20.672C56.798 20.288 56.384 19.988 55.88 19.772C55.388 19.544 54.812 19.43 54.152 19.43C52.868 19.43 51.854 19.796 51.11 20.528C50.378 21.26 49.91 22.298 49.706 23.642H58.094ZM49.616 26.324C49.688 27.272 49.856 28.094 50.12 28.79C50.384 29.474 50.732 30.044 51.164 30.5C51.596 30.944 52.106 31.28 52.694 31.508C53.294 31.724 53.954 31.832 54.674 31.832C55.394 31.832 56.012 31.748 56.528 31.58C57.056 31.412 57.512 31.226 57.896 31.022C58.292 30.818 58.634 30.632 58.922 30.464C59.222 30.296 59.51 30.212 59.786 30.212C60.158 30.212 60.434 30.35 60.614 30.626L61.892 32.246C61.4 32.822 60.848 33.308 60.236 33.704C59.624 34.088 58.982 34.4 58.31 34.64C57.65 34.868 56.972 35.03 56.276 35.126C55.592 35.222 54.926 35.27 54.278 35.27C52.994 35.27 51.8 35.06 50.696 34.64C49.592 34.208 48.632 33.578 47.816 32.75C47 31.91 46.358 30.878 45.89 29.654C45.422 28.418 45.188 26.99 45.188 25.37C45.188 24.11 45.392 22.928 45.8 21.824C46.208 20.708 46.79 19.742 47.546 18.926C48.314 18.098 49.244 17.444 50.336 16.964C51.44 16.484 52.682 16.244 54.062 16.244C55.226 16.244 56.3 16.43 57.284 16.802C58.268 17.174 59.114 17.72 59.822 18.44C60.53 19.148 61.082 20.024 61.478 21.068C61.886 22.1 62.09 23.282 62.09 24.614C62.09 25.286 62.018 25.742 61.874 25.982C61.73 26.21 61.454 26.324 61.046 26.324H49.616ZM71.5845 18.8C71.9565 18.428 72.3465 18.086 72.7545 17.774C73.1745 17.45 73.6125 17.18 74.0685 16.964C74.5365 16.736 75.0345 16.562 75.5625 16.442C76.0905 16.31 76.6665 16.244 77.2905 16.244C78.2985 16.244 79.1925 16.418 79.9725 16.766C80.7525 17.102 81.4005 17.582 81.9165 18.206C82.4445 18.818 82.8405 19.556 83.1045 20.42C83.3805 21.272 83.5185 22.214 83.5185 23.246V35H79.0725V23.246C79.0725 22.118 78.8145 21.248 78.2985 20.636C77.7825 20.012 76.9965 19.7 75.9405 19.7C75.1725 19.7 74.4525 19.874 73.7805 20.222C73.1085 20.57 72.4725 21.044 71.8725 21.644V35H67.4265V16.532H70.1445C70.7205 16.532 71.0985 16.802 71.2785 17.342L71.5845 18.8ZM105.975 16.532L98.6489 35H94.6169L87.2909 16.532H90.9629C91.2989 16.532 91.5749 16.61 91.7909 16.766C92.0189 16.922 92.1689 17.12 92.2409 17.36L95.8049 27.224C95.9969 27.8 96.1649 28.364 96.3089 28.916C96.4529 29.468 96.5789 30.02 96.6869 30.572C96.8069 30.02 96.9389 29.468 97.0829 28.916C97.2269 28.364 97.4009 27.8 97.6049 27.224L101.241 17.36C101.325 17.12 101.475 16.922 101.691 16.766C101.907 16.61 102.165 16.532 102.465 16.532H105.975ZM127.12 16.532L117.058 40.076C116.926 40.388 116.752 40.622 116.536 40.778C116.332 40.946 116.014 41.03 115.582 41.03H112.27L115.726 33.614L108.256 16.532H112.162C112.51 16.532 112.78 16.616 112.972 16.784C113.176 16.952 113.326 17.144 113.422 17.36L117.346 26.936C117.478 27.26 117.586 27.584 117.67 27.908C117.766 28.232 117.856 28.562 117.94 28.898C118.048 28.562 118.156 28.232 118.264 27.908C118.372 27.572 118.492 27.242 118.624 26.918L122.332 17.36C122.428 17.12 122.584 16.922 122.8 16.766C123.028 16.61 123.28 16.532 123.556 16.532H127.12Z" fill="#3E83D7"/>
</svg>
