<svg width="20" height="21" viewBox="0 0 20 21" fill="none" xmlns="http://www.w3.org/2000/svg">
<path id="Vector" d="M19.0371 13.9459L14.3261 11.8349L14.3131 11.8289C14.0685 11.7243 13.8017 11.6823 13.5369 11.7068C13.272 11.7312 13.0174 11.8213 12.7961 11.9689C12.77 11.9861 12.745 12.0048 12.7211 12.0249L10.2871 14.0999C8.74507 13.3509 7.15306 11.7709 6.40405 10.2489L8.48207 7.77787C8.50207 7.75287 8.52107 7.72787 8.53907 7.70087C8.6835 7.48017 8.77113 7.22718 8.79416 6.96443C8.81719 6.70168 8.7749 6.43731 8.67107 6.19485V6.18285L6.55406 1.46381C6.41679 1.14707 6.18078 0.883216 5.88124 0.711638C5.5817 0.54006 5.2347 0.469958 4.89204 0.511798C3.537 0.690106 2.2932 1.35557 1.39295 2.38391C0.4927 3.41225 -0.00244095 4.73313 9.04871e-06 6.09985C9.04871e-06 14.0399 6.46006 20.5 14.4001 20.5C15.7668 20.5024 17.0877 20.0073 18.116 19.107C19.1444 18.2068 19.8098 16.963 19.9882 15.6079C20.0301 15.2654 19.9601 14.9185 19.7887 14.619C19.6173 14.3194 19.3537 14.0834 19.0371 13.9459ZM14.4001 18.9C11.0065 18.8963 7.75285 17.5465 5.35317 15.1468C2.95349 12.7471 1.60373 9.49352 1.60002 6.09985C1.59626 5.12333 1.94807 4.17883 2.58976 3.44273C3.23145 2.70664 4.11914 2.22928 5.08705 2.09981C5.08665 2.1038 5.08665 2.10782 5.08705 2.11181L7.18706 6.81186L5.12005 9.28588C5.09907 9.31002 5.08001 9.33577 5.06305 9.36288C4.91256 9.5938 4.82428 9.85968 4.80676 10.1348C4.78924 10.4098 4.84307 10.6848 4.96304 10.9329C5.86905 12.7859 7.73606 14.6389 9.60908 15.5439C9.85904 15.6628 10.1356 15.7148 10.4116 15.6948C10.6877 15.6748 10.9538 15.5836 11.1841 15.4299C11.2098 15.4126 11.2345 15.394 11.2581 15.3739L13.6891 13.2999L18.3891 15.4049H18.4001C18.2723 16.3742 17.7956 17.2637 17.0594 17.907C16.3232 18.5503 15.3778 18.9033 14.4001 18.9Z" fill="white"/>
</svg>
