<svg width="20" height="21" viewBox="0 0 20 21" fill="none" xmlns="http://www.w3.org/2000/svg">
<g id="carbon:email">
<path id="Vector" d="M18.5714 3.5H1.42857C1.04969 3.5 0.686328 3.65804 0.418419 3.93934C0.15051 4.22064 0 4.60218 0 5V17C0 17.3978 0.15051 17.7794 0.418419 18.0607C0.686328 18.342 1.04969 18.5 1.42857 18.5H18.5714C18.9503 18.5 19.3137 18.342 19.5816 18.0607C19.8495 17.7794 20 17.3978 20 17V5C20 4.60218 19.8495 4.22064 19.5816 3.93934C19.3137 3.65804 18.9503 3.5 18.5714 3.5ZM17 5L10 10.085L3 5H17ZM1.42857 17V5.6825L9.59286 11.615C9.71243 11.7021 9.85448 11.7488 10 11.7488C10.1455 11.7488 10.2876 11.7021 10.4071 11.615L18.5714 5.6825V17H1.42857Z" fill="white"/>
</g>
</svg>
