<svg width="20" height="20" viewBox="0 0 20 20" fill="none" xmlns="http://www.w3.org/2000/svg">
<g id="bx:map">
<path id="Vector" d="M9.99935 11.6667C11.8377 11.6667 13.3327 10.1717 13.3327 8.33333C13.3327 6.495 11.8377 5 9.99935 5C8.16102 5 6.66602 6.495 6.66602 8.33333C6.66602 10.1717 8.16102 11.6667 9.99935 11.6667ZM9.99935 6.66667C10.9185 6.66667 11.666 7.41417 11.666 8.33333C11.666 9.2525 10.9185 10 9.99935 10C9.08018 10 8.33268 9.2525 8.33268 8.33333C8.33268 7.41417 9.08018 6.66667 9.99935 6.66667Z" fill="white"/>
<path id="Vector_2" d="M9.51739 18.1784C9.65843 18.2791 9.82741 18.3332 10.0007 18.3332C10.174 18.3332 10.343 18.2791 10.4841 18.1784C10.7374 17.9992 16.6916 13.7 16.6674 8.33335C16.6674 4.65752 13.6766 1.66669 10.0007 1.66669C6.32489 1.66669 3.33406 4.65752 3.33406 8.32919C3.30989 13.7 9.26406 17.9992 9.51739 18.1784ZM10.0007 3.33335C12.7582 3.33335 15.0007 5.57585 15.0007 8.33752C15.0182 12.0359 11.3441 15.3567 10.0007 16.4459C8.65823 15.3559 4.98322 12.0342 5.00072 8.33335C5.00072 5.57585 7.24322 3.33335 10.0007 3.33335Z" fill="white"/>
</g>
</svg>
