<svg width="16" height="17" viewBox="0 0 16 17" fill="none" xmlns="http://www.w3.org/2000/svg">
<path id="Vector" d="M13.5874 3.18797C12.5368 2.13717 11.1981 1.42152 9.74072 1.13152C8.28334 0.841525 6.77269 0.990226 5.39983 1.55881C4.02696 2.1274 2.85354 3.09036 2.02796 4.32585C1.20237 5.56136 0.761719 7.01395 0.761719 8.49991C0.761719 9.98587 1.20237 11.4384 2.02796 12.674C2.85354 13.9095 4.02696 14.8724 5.39983 15.441C6.77269 16.0096 8.28334 16.1583 9.74072 15.8683C11.1981 15.5783 12.5368 14.8626 13.5874 13.8118C14.9961 12.4029 15.7874 10.4922 15.7874 8.49991C15.7874 6.50761 14.9961 4.59687 13.5874 3.18797ZM2.7211 5.95748C3.09966 5.11781 3.6606 4.37305 4.36316 3.77738C5.06569 3.18172 5.89216 2.75011 6.78243 2.51396C7.67273 2.27782 8.60446 2.24307 9.50986 2.41225C10.4153 2.58142 11.2716 2.95025 12.0166 3.49192C10.1725 3.31776 7.86399 4.26027 5.99262 6.12823C5.28633 6.83337 4.68796 7.63888 4.21685 8.51869C3.57608 7.75635 3.07023 6.89014 2.7211 5.95748ZM6.86341 14.6724C5.43747 14.2903 4.19447 13.4124 3.35765 12.1963C2.52082 10.9801 2.145 9.5055 2.29767 8.03717C3.07283 9.72074 5.0296 11.2506 7.59763 11.9336C8.55632 12.1937 9.54853 12.3088 10.5413 12.2751C10.2039 13.2084 9.71086 14.0779 9.08311 14.8465C8.33837 14.9219 7.58612 14.8605 6.86341 14.6656V14.6724ZM11.5385 7.53177C11.2853 6.56876 10.8918 5.64824 10.3705 4.79983C11.3469 4.62601 12.3457 4.61909 13.3245 4.77933C13.7625 5.3858 14.0855 6.06759 14.2772 6.79073C14.6599 8.21689 14.5215 9.73277 13.8868 11.066C13.2521 12.3992 12.1628 13.4624 10.8145 14.0645C11.88 12.5586 12.2214 10.0895 11.5385 7.53177Z" fill="#5C9DED"/>
</svg>
