<svg width="131" height="131" viewBox="0 0 131 131" fill="none" xmlns="http://www.w3.org/2000/svg">
<g id="clarity:plane-line" clip-path="url(#clip0_798_211)">
<path id="Vector" d="M130.163 29.6934C129.884 27.9224 129.074 26.278 127.839 24.9783C126.604 23.6785 125.004 22.7848 123.249 22.4156L101.889 17.7214C99.5983 17.2218 97.2271 17.22 94.9357 17.7159C92.6443 18.2119 90.4861 19.1941 88.607 20.5961L25.4723 66.5917L7.78731 65.8639C6.36565 65.813 4.9641 66.2114 3.78172 67.0024C2.59935 67.7934 1.69626 68.9368 1.20074 70.2703C0.705219 71.6038 0.642453 73.0595 1.02136 74.4307C1.40026 75.8019 2.20157 77.0188 3.31148 77.9086L21.5059 92.2095C23.6893 94.8659 25.1448 94.3564 61.279 74.67L64.6631 108.948C64.7195 109.883 65.04 110.783 65.5875 111.543C66.1351 112.304 66.8871 112.893 67.7562 113.242C68.3815 113.489 69.0488 113.613 69.7212 113.606C71.0746 113.565 72.3672 113.035 73.3601 112.114L82.057 104.181C82.923 103.379 83.5096 102.321 83.7309 101.161L91.7001 57.8584C104.691 50.5806 116.99 43.7395 125.76 38.7542C127.329 37.8716 128.591 36.5312 129.378 34.9121C130.165 33.293 130.439 31.4723 130.163 29.6934ZM122.158 32.4225C113.06 37.5897 100.324 44.8311 86.642 52.3273L85.1501 53.1642L76.6715 99.2689L71.3223 104.145L67.3195 63.0256L62.4798 65.5C36.389 80.0556 27.692 84.2767 24.7081 85.5867L9.06092 73.1781L27.5465 73.9786L93.0465 26.4548C94.076 25.685 95.2565 25.1413 96.5106 24.8591C97.7647 24.577 99.0642 24.5627 100.324 24.8173L121.612 29.4023C121.94 29.4617 122.24 29.6244 122.469 29.8666C122.698 30.1088 122.844 30.4178 122.885 30.7486C122.96 31.0688 122.93 31.4046 122.799 31.7062C122.668 32.0077 122.443 32.2589 122.158 32.4225Z" fill="white" fill-opacity="0.3"/>
<path id="Vector_2" d="M25.4722 45.6317L38.4266 49.2706L44.3944 44.9403L29.8388 40.7192L36.3888 36.7164L56.2936 36.1342L64.663 30.0573L36.3888 30.9306C35.4975 30.8824 34.6116 31.0975 33.8416 31.5492L24.2714 37.1167C23.4801 37.5854 22.8454 38.2779 22.4471 39.1067C22.0488 39.9356 21.9048 40.8639 22.0332 41.7745C22.1616 42.6851 22.5567 43.5373 23.1687 44.2238C23.7807 44.9102 24.5822 45.4001 25.4722 45.6317Z" fill="white" fill-opacity="0.3"/>
</g>
<defs>
<clipPath id="clip0_798_211">
<rect width="131" height="131" fill="white"/>
</clipPath>
</defs>
</svg>
