<svg width="80" height="80" viewBox="0 0 80 80" fill="none" xmlns="http://www.w3.org/2000/svg">
<g id="ion:earth">
<path id="Vector" d="M64.7484 15.2718C61.5042 11.9955 57.6446 9.3925 53.3914 7.61232C49.1381 5.83215 44.5751 4.90989 39.9643 4.89854C35.3536 4.8872 30.786 5.78698 26.5241 7.5462C22.2621 9.30541 18.3897 11.8894 15.1294 15.1497C11.8691 18.41 9.28515 22.2824 7.52593 26.5443C5.76671 30.8063 4.86693 35.3738 4.87828 39.9846C4.88963 44.5953 5.81188 49.1584 7.59206 53.4116C9.37224 57.6649 11.9752 61.5245 15.2516 64.7687C18.4958 68.045 22.3554 70.648 26.6086 72.4282C30.8619 74.2084 35.4249 75.1306 40.0357 75.142C44.6464 75.1533 49.214 74.2535 53.4759 72.4943C57.7379 70.7351 61.6103 68.1511 64.8706 64.8908C68.1309 61.6305 70.7148 57.7582 72.4741 53.4962C74.2333 49.2342 75.1331 44.6667 75.1217 40.0559C75.1104 35.4452 74.1881 30.8821 72.4079 26.6289C70.6278 22.3756 68.0247 18.516 64.7484 15.2718ZM10 40.0203C9.99888 37.3651 10.3509 34.7216 11.0469 32.1593C12.1937 34.6281 13.8594 36.7609 14.9922 39.2937C16.4562 42.5499 20.3875 41.6468 22.1234 44.4999C23.6641 47.0328 22.0187 50.2359 23.1719 52.8859C24.0094 54.8093 25.9844 55.2296 27.3469 56.6359C28.7391 58.0546 28.7094 59.9984 28.9219 61.8484C29.1617 64.022 29.5506 66.1766 30.0859 68.2968C30.0859 68.3124 30.0859 68.3296 30.0984 68.3453C18.4062 64.239 10 53.0937 10 40.0203ZM40 70.0203C38.3246 70.0197 36.6521 69.8797 35 69.6015C35.0172 69.1781 35.025 68.7828 35.0672 68.5078C35.4469 66.0234 36.6906 63.5937 38.3687 61.7343C40.0266 59.8999 42.2984 58.6593 43.6984 56.5781C45.0703 54.5468 45.4812 51.8124 44.9156 49.439C44.0828 45.9328 39.3187 44.7624 36.75 42.8609C35.2734 41.7671 33.9594 40.0765 32.0203 39.939C31.1266 39.8765 30.3781 40.0687 29.4922 39.8406C28.6797 39.6296 28.0422 39.1921 27.1766 39.3062C25.5594 39.5187 24.5391 41.2468 22.8016 41.0124C21.1531 40.7921 19.4547 38.8624 19.0797 37.2921C18.5984 35.2734 20.1953 34.6187 21.9062 34.439C22.6203 34.364 23.4219 34.2828 24.1078 34.5453C25.0109 34.8796 25.4375 35.764 26.2484 36.2109C27.7687 37.0453 28.0766 35.7124 27.8437 34.3624C27.4953 32.3406 27.0891 31.5171 28.8922 30.1249C30.1422 29.1656 31.2109 28.4718 31.0109 26.7484C30.8922 25.7359 30.3375 25.2781 30.8547 24.2703C31.2469 23.5031 32.3234 22.8109 33.025 22.3531C34.8359 21.1718 40.7828 21.2593 38.3531 17.9531C37.6391 16.9828 36.3219 15.2484 35.0719 15.0109C33.5094 14.7156 32.8156 16.4593 31.7266 17.2281C30.6016 18.0234 28.4109 18.9265 27.2844 17.6968C25.7687 16.0421 28.2891 15.4999 28.8469 14.3437C29.1047 13.8046 28.8469 13.0562 28.4125 12.3515C28.976 12.114 29.549 11.8937 30.1312 11.6906C30.4962 11.9601 30.9291 12.1224 31.3812 12.1593C32.4266 12.2281 33.4125 11.6624 34.325 12.3749C35.3375 13.1562 36.0672 14.1437 37.4109 14.3874C38.7109 14.6234 40.0875 13.8656 40.4094 12.5343C40.6047 11.7249 40.4094 10.8703 40.2219 10.0343C46.0657 10.0679 51.7707 11.818 56.6281 15.0671C56.3156 14.9484 55.9422 14.9624 55.4812 15.1765C54.5328 15.6171 53.1891 16.739 53.0781 17.8515C52.9516 19.114 54.8141 19.2921 55.6984 19.2921C57.0266 19.2921 58.3719 18.6984 57.9437 17.164C57.7578 16.4984 57.5047 15.8062 57.0969 15.3874C58.0772 16.0677 59.0163 16.8054 59.9094 17.5968C59.8953 17.6109 59.8812 17.6234 59.8672 17.639C58.9672 18.5765 57.9219 19.3187 57.3062 20.4593C56.8719 21.2624 56.3828 21.6437 55.5031 21.8515C55.0187 21.9656 54.4656 22.0078 54.0594 22.3328C52.9281 23.2234 53.5719 25.364 54.6437 26.0062C55.9984 26.8171 58.0078 26.4359 59.0297 25.2781C59.8281 24.3718 60.2984 22.7984 61.7344 22.7999C62.3666 22.7986 62.9739 23.0462 63.425 23.489C64.0187 24.1046 63.9016 24.6796 64.0281 25.4484C64.2516 26.814 65.4562 26.0734 66.1891 25.3843C66.7232 26.335 67.2052 27.314 67.6328 28.3171C66.8266 29.4781 66.1859 30.7437 64.2469 29.3906C63.0859 28.5796 62.3719 27.4031 60.9141 27.0374C59.6406 26.7249 58.3359 27.0499 57.0781 27.2671C55.6484 27.5156 53.9531 27.6249 52.8687 28.7078C51.8203 29.7515 51.2656 31.1484 50.15 32.1968C47.9922 34.2281 47.0812 36.4453 48.4781 39.3171C49.8219 42.0781 52.6328 43.5765 55.6656 43.3796C58.6453 43.1812 61.7406 41.4531 61.6547 45.7828C61.6234 47.3156 61.9437 48.3765 62.4141 49.7999C62.85 51.1124 62.8203 52.3843 62.9203 53.739C63.0154 55.3253 63.2634 56.8988 63.6609 58.4374C60.8603 62.0433 57.2726 64.9615 53.1718 66.9689C49.0711 68.9764 44.5657 70.0201 40 70.0203Z" fill="#0C416B"/>
</g>
</svg>
