<svg width="80" height="80" viewBox="0 0 80 80" fill="none" xmlns="http://www.w3.org/2000/svg">
<g id="icons8:library">
<path id="Vector" d="M40 9.76501L39.0625 10.155L9.0625 22.655L7.5 23.3625V30H12.5V57.5H7.5V70H72.5V57.5H67.5V30H72.5V23.36L70.9375 22.66L40.9375 10.155L40 9.76501ZM40 15.235L63.4375 25H16.5625L40 15.235ZM17.5 30H22.5V57.5H17.5V30ZM27.5 30H32.5V57.5H27.5V30ZM37.5 30H42.5V57.5H37.5V30ZM47.5 30H52.5V57.5H47.5V30ZM57.5 30H62.5V57.5H57.5V30ZM12.5 62.5H67.5V65H12.5V62.5Z" fill="#0C416B"/>
</g>
</svg>
