<svg width="80" height="80" viewBox="0 0 80 80" fill="none" xmlns="http://www.w3.org/2000/svg">
<g id="clarity:library-solid" clip-path="url(#clip0_798_224)">
<path id="Vector" d="M28.3334 6.6667H11.6667C11.0057 6.60367 10.3462 6.80038 9.82769 7.21516C9.30921 7.62994 8.97252 8.23023 8.88892 8.88892V73.3334H31.1111V8.88892C31.0275 8.23023 30.6908 7.62994 30.1724 7.21516C29.6539 6.80038 28.9943 6.60367 28.3334 6.6667Z" fill="#0C416B"/>
<path id="Vector_2" d="M75.0446 69.0889L59.6223 28.4223C59.5188 28.1494 59.3625 27.8996 59.1623 27.6871C58.9622 27.4747 58.7222 27.3037 58.456 27.184C58.1898 27.0643 57.9026 26.9983 57.6109 26.9896C57.3191 26.9809 57.0285 27.0298 56.7557 27.1334L48.889 30.2001V20.0001C48.889 19.4107 48.6549 18.8455 48.2381 18.4287C47.8214 18.012 47.2561 17.7778 46.6668 17.7778H35.5557V73.3334H48.889V32.6445L64.289 73.3334L75.0446 69.0889Z" fill="#0C416B"/>
</g>
<defs>
<clipPath id="clip0_798_224">
<rect width="80" height="80" fill="white"/>
</clipPath>
</defs>
</svg>
