<svg width="80" height="80" viewBox="0 0 80 80" fill="none" xmlns="http://www.w3.org/2000/svg">
<g id="nimbus:university" clip-path="url(#clip0_798_205)">
<path id="Vector" d="M79.9999 31.3999C80.0016 30.3139 79.7157 29.2467 79.1712 28.307C78.6267 27.3673 77.843 26.5886 76.8999 26.0499L43.1999 6.04994C42.2287 5.48328 41.1244 5.18469 39.9999 5.18469C38.8755 5.18469 37.7712 5.48328 36.7999 6.04994L3.04992 26.0499C2.11728 26.6033 1.34468 27.3899 0.808058 28.3323C0.271436 29.2747 -0.0107422 30.3405 -0.0107422 31.4249C-0.0107422 32.5094 0.271436 33.5752 0.808058 34.5176C1.34468 35.46 2.11728 36.2465 3.04992 36.7999L12.6499 42.3999V56.4499C12.6557 57.548 12.9439 58.6261 13.4868 59.5806C14.0297 60.535 14.8091 61.3338 15.7499 61.8999L36.9999 74.1499C37.9487 74.6752 39.0154 74.9508 40.0999 74.9508C41.1844 74.9508 42.2511 74.6752 43.1999 74.1499L64.4499 61.8999C65.3908 61.3338 66.1701 60.535 66.713 59.5806C67.2559 58.6261 67.5441 57.548 67.5499 56.4499V42.2499L73.7499 38.5999V52.1999H79.9999V31.3999ZM61.3499 56.3999L39.9999 68.6999L18.8999 56.4499V46.0999L36.7999 56.7499C37.7745 57.3068 38.8775 57.5997 39.9999 57.5997C41.1224 57.5997 42.2254 57.3068 43.1999 56.7499L61.2999 45.9499L61.3499 56.3999ZM39.9999 51.3499L6.24992 31.3499L39.9999 11.2999L73.7499 31.2999L39.9999 51.3499Z" fill="#0C416B"/>
</g>
<defs>
<clipPath id="clip0_798_205">
<rect width="80" height="80" fill="white"/>
</clipPath>
</defs>
</svg>
