<svg width="80" height="80" viewBox="0 0 80 80" fill="none" xmlns="http://www.w3.org/2000/svg">
<g id="map:library">
<path id="Vector" d="M40.2465 27.7552C46.5713 27.7552 51.6769 22.608 51.6769 16.2624C51.6769 9.92965 46.5729 4.80005 40.2465 4.80005C33.9297 4.80005 28.8017 9.93125 28.8017 16.2624C28.8017 22.6064 33.9313 27.7552 40.2465 27.7552ZM51.3681 30.4C56.6017 30.4 58.7985 34.8705 58.7985 34.8705L75.6897 58.1425C76.3889 59.1809 76.8001 60.4512 76.8001 61.8224C76.8001 65.4384 73.8753 68.3777 70.2705 68.3777C69.4382 68.3711 68.6143 68.2111 67.8401 67.9057L57.6001 65.0672V75.2001H22.4001V65.0672L12.1569 67.9104C11.4369 68.1921 10.6081 68.3841 9.74246 68.3841C8.00783 68.3819 6.3449 67.6917 5.11863 66.4648C3.89235 65.2379 3.20293 63.5747 3.20166 61.8401C3.20166 60.4705 3.60646 59.2208 4.33126 58.1792L21.2113 34.8705C21.2113 34.8705 23.4065 30.4 28.6177 30.4H51.3681ZM40.0097 68.1409L53.2033 63.7568L52.9169 63.6768C43.7889 61.0017 47.2881 48.9121 56.3937 51.6177L57.6001 52.0464V38.4128L40.0177 44.2097L22.4001 38.4128V52.0464L23.6065 51.616C32.7073 48.912 36.2433 61 27.1217 63.6753L26.8017 63.7552L40.0097 68.1409Z" fill="#0C416B"/>
</g>
</svg>
