<svg width="20" height="20" viewBox="0 0 20 20" fill="none" xmlns="http://www.w3.org/2000/svg">
<g id="carbon:email">
<path id="Vector" d="M18.5714 3H1.42857C1.04969 3 0.686328 3.15804 0.418419 3.43934C0.15051 3.72064 0 4.10218 0 4.5V16.5C0 16.8978 0.15051 17.2794 0.418419 17.5607C0.686328 17.842 1.04969 18 1.42857 18H18.5714C18.9503 18 19.3137 17.842 19.5816 17.5607C19.8495 17.2794 20 16.8978 20 16.5V4.5C20 4.10218 19.8495 3.72064 19.5816 3.43934C19.3137 3.15804 18.9503 3 18.5714 3ZM17 4.5L10 9.585L3 4.5H17ZM1.42857 16.5V5.1825L9.59286 11.115C9.71243 11.2021 9.85448 11.2488 10 11.2488C10.1455 11.2488 10.2876 11.2021 10.4071 11.115L18.5714 5.1825V16.5H1.42857Z" fill="#B4E8E2"/>
</g>
</svg>
